<?xml version="1.0" encoding="UTF-8" standalone="no"?>
<!DOCTYPE svg PUBLIC "-//W3C//DTD SVG 1.1//EN"
 "http://www.w3.org/Graphics/SVG/1.1/DTD/svg11.dtd">
<!-- Generated by graphviz version 2.22.2 (20090313.1817)
 -->
<!-- Title: cr_xq_calls_calls Pages: 1 -->
<svg width="1698pt" height="1743pt"
 viewBox="0.00 0.00 1698.00 1742.64" xmlns="http://www.w3.org/2000/svg" xmlns:xlink="http://www.w3.org/1999/xlink">
<g id="graph1" class="graph" transform="scale(1 1) rotate(0) translate(4 1738.64)">
<title>cr_xq_calls_calls</title>
<polygon fill="white" stroke="white" points="-4,5 -4,-1738.64 1695,-1738.64 1695,5 -4,5"/>
<text text-anchor="middle" x="845" y="-8.4" font-family="Times Roman,serif" font-size="14.00">cr&#45;xq&#45;calls calls</text>
<!-- app_xql -->
<g id="node1" class="node"><title>app_xql</title>
<a xlink:href="app_xql.png" xlink:title="app.xql">
<polygon fill="none" stroke="black" points="346,-1102.64 284,-1102.64 284,-1066.64 346,-1066.64 346,-1102.64"/>
<text text-anchor="middle" x="315" y="-1080.54" font-family="Times Roman,serif" font-size="14.00">app.xql</text>
</a>
</g>
<!-- templates_xql -->
<g id="node3" class="node"><title>templates_xql</title>
<a xlink:href="templates_xql.png" xlink:title="templates.xql">
<polygon fill="none" stroke="black" points="544,-1148.64 444,-1148.64 444,-1112.64 544,-1112.64 544,-1148.64"/>
<text text-anchor="middle" x="494" y="-1126.54" font-family="Times Roman,serif" font-size="14.00">templates.xql</text>
</a>
</g>
<!-- app_xql&#45;&gt;templates_xql -->
<g id="edge2" class="edge"><title>app_xql&#45;&gt;templates_xql</title>
<path fill="none" stroke="black" d="M346.179,-1092.65C370.387,-1098.87 404.678,-1107.68 434.139,-1115.25"/>
<polygon fill="black" stroke="black" points="433.366,-1118.67 443.923,-1117.77 435.109,-1111.89 433.366,-1118.67"/>
</g>
<!-- project_xqm -->
<g id="node5" class="node"><title>project_xqm</title>
<a xlink:href="project_xqm.png" xlink:title="project.xqm">
<polygon fill="none" stroke="black" points="539,-848.637 449,-848.637 449,-812.637 539,-812.637 539,-848.637"/>
<text text-anchor="middle" x="494" y="-826.537" font-family="Times Roman,serif" font-size="14.00">project.xqm</text>
</a>
</g>
<!-- app_xql&#45;&gt;project_xqm -->
<g id="edge4" class="edge"><title>app_xql&#45;&gt;project_xqm</title>
<path fill="none" stroke="black" d="M346.128,-1083.17C365.936,-1080.57 390.66,-1073.98 406,-1057.64 455.001,-1005.45 412.016,-965.644 442,-900.637 449.282,-884.849 460.495,-869.139 470.647,-856.614"/>
<polygon fill="black" stroke="black" points="473.388,-858.793 477.113,-848.875 468.016,-854.305 473.388,-858.793"/>
</g>
<!-- resource_xqm -->
<g id="node7" class="node"><title>resource_xqm</title>
<a xlink:href="resource_xqm.png" xlink:title="resource.xqm">
<polygon fill="none" stroke="black" points="724,-662.637 622,-662.637 622,-626.637 724,-626.637 724,-662.637"/>
<text text-anchor="middle" x="673" y="-640.537" font-family="Times Roman,serif" font-size="14.00">resource.xqm</text>
</a>
</g>
<!-- app_xql&#45;&gt;resource_xqm -->
<g id="edge6" class="edge"><title>app_xql&#45;&gt;resource_xqm</title>
<path fill="none" stroke="black" d="M346.106,-1082.13C365.403,-1079.09 389.565,-1072.39 406,-1057.64 436.839,-1029.96 416.634,-1004.4 442,-971.637 477.534,-925.739 508.729,-937.136 546,-892.637 604.719,-822.529 645.973,-720.719 663.534,-672.264"/>
<polygon fill="black" stroke="black" points="666.859,-673.359 666.919,-662.764 660.265,-671.009 666.859,-673.359"/>
</g>
<!-- resourcefragment_xqm -->
<g id="node9" class="node"><title>resourcefragment_xqm</title>
<a xlink:href="resourcefragment_xqm.png" xlink:title="resourcefragment.xqm">
<polygon fill="none" stroke="black" points="976,-924.637 818,-924.637 818,-888.637 976,-888.637 976,-924.637"/>
<text text-anchor="middle" x="897" y="-902.537" font-family="Times Roman,serif" font-size="14.00">resourcefragment.xqm</text>
</a>
</g>
<!-- app_xql&#45;&gt;resourcefragment_xqm -->
<g id="edge8" class="edge"><title>app_xql&#45;&gt;resourcefragment_xqm</title>
<path fill="none" stroke="black" d="M346.094,-1085.99C436.358,-1089.3 696.305,-1094.48 764,-1047.64 794.735,-1026.37 775.598,-999.947 800,-971.637 814.314,-955.031 833.845,-940.855 851.631,-930.02"/>
<polygon fill="black" stroke="black" points="853.892,-932.751 860.736,-924.663 850.342,-926.717 853.892,-932.751"/>
</g>
<!-- project_xqm&#45;&gt;resource_xqm -->
<g id="edge50" class="edge"><title>project_xqm&#45;&gt;resource_xqm</title>
<path fill="none" stroke="black" d="M503.915,-812.583C515.108,-796.664 533.396,-773.553 546,-751.637 566.249,-716.427 552.337,-695.384 582,-667.637 590.419,-659.762 600.89,-653.808 611.7,-649.487"/>
<polygon fill="black" stroke="black" points="612.99,-652.744 621.245,-646.103 610.65,-646.146 612.99,-652.744"/>
</g>
<!-- index_xqm -->
<g id="node19" class="node"><title>index_xqm</title>
<a xlink:href="index_xqm.png" xlink:title="index.xqm">
<polygon fill="none" stroke="black" points="1533,-1319.64 1453,-1319.64 1453,-1283.64 1533,-1283.64 1533,-1319.64"/>
<text text-anchor="middle" x="1493" y="-1297.54" font-family="Times Roman,serif" font-size="14.00">index.xqm</text>
</a>
</g>
<!-- project_xqm&#45;&gt;index_xqm -->
<g id="edge52" class="edge"><title>project_xqm&#45;&gt;index_xqm</title>
<path fill="none" stroke="black" d="M505.399,-848.922C517.569,-874.229 536.394,-920.673 546,-962.637 564.482,-1043.38 526.45,-1272.19 582,-1333.64 677.748,-1439.54 754.227,-1396.64 897,-1396.64 897,-1396.64 897,-1396.64 1245,-1396.64 1322.2,-1396.64 1403.13,-1353.25 1450.77,-1324.95"/>
<polygon fill="black" stroke="black" points="1452.78,-1327.83 1459.55,-1319.68 1449.18,-1321.82 1452.78,-1327.83"/>
</g>
<!-- handle_xqm -->
<g id="node44" class="node"><title>handle_xqm</title>
<a xlink:href="handle_xqm.png" xlink:title="handle.xqm">
<polygon fill="none" stroke="black" points="941,-778.637 853,-778.637 853,-742.637 941,-742.637 941,-778.637"/>
<text text-anchor="middle" x="897" y="-756.537" font-family="Times Roman,serif" font-size="14.00">handle.xqm</text>
</a>
</g>
<!-- project_xqm&#45;&gt;handle_xqm -->
<g id="edge54" class="edge"><title>project_xqm&#45;&gt;handle_xqm</title>
<path fill="none" stroke="black" d="M539.056,-818.363C613.51,-802.483 761.962,-776.58 842.309,-765.337"/>
<polygon fill="black" stroke="black" points="842.802,-768.802 852.234,-763.976 841.851,-761.867 842.802,-768.802"/>
</g>
<!-- resource_xqm&#45;&gt;project_xqm -->
<g id="edge56" class="edge"><title>resource_xqm&#45;&gt;project_xqm</title>
<path fill="none" stroke="black" d="M623.137,-662.665C608.494,-667.865 593.374,-674.998 582,-685.637 552.337,-713.384 566.249,-734.427 546,-769.637 539.092,-781.649 530.476,-794.02 522.257,-804.547"/>
<polygon fill="black" stroke="black" points="519.352,-802.573 515.791,-812.551 524.797,-806.972 519.352,-802.573"/>
</g>
<!-- resource_xqm&#45;&gt;resourcefragment_xqm -->
<g id="edge62" class="edge"><title>resource_xqm&#45;&gt;resourcefragment_xqm</title>
<path fill="none" stroke="black" d="M707.283,-662.893C726.293,-677.811 749.043,-699.811 764,-723.637 791.125,-766.847 769.136,-792.013 800,-832.637 816.344,-854.15 841.961,-870.881 862.766,-883.247"/>
<polygon fill="black" stroke="black" points="861.244,-886.412 871.64,-888.452 864.785,-880.374 861.244,-886.412"/>
</g>
<!-- facs_xqm -->
<g id="node17" class="node"><title>facs_xqm</title>
<a xlink:href="facs_xqm.png" xlink:title="facs.xqm">
<polygon fill="none" stroke="black" points="1282,-800.637 1208,-800.637 1208,-764.637 1282,-764.637 1282,-800.637"/>
<text text-anchor="middle" x="1245" y="-778.537" font-family="Times Roman,serif" font-size="14.00">facs.xqm</text>
</a>
</g>
<!-- resource_xqm&#45;&gt;facs_xqm -->
<g id="edge68" class="edge"><title>resource_xqm&#45;&gt;facs_xqm</title>
<path fill="none" stroke="black" d="M724.553,-627.951C816.037,-606.971 1010.27,-582.928 1150,-654.637 1191.38,-675.875 1220.76,-724.137 1235.08,-755.162"/>
<polygon fill="black" stroke="black" points="1231.99,-756.815 1239.2,-764.574 1238.4,-754.01 1231.99,-756.815"/>
</g>
<!-- wc_xqm -->
<g id="node24" class="node"><title>wc_xqm</title>
<a xlink:href="wc_xqm.png" xlink:title="wc.xqm">
<polygon fill="none" stroke="black" points="1410,-517.637 1346,-517.637 1346,-481.637 1410,-481.637 1410,-517.637"/>
<text text-anchor="middle" x="1378" y="-495.537" font-family="Times Roman,serif" font-size="14.00">wc.xqm</text>
</a>
</g>
<!-- resource_xqm&#45;&gt;wc_xqm -->
<g id="edge64" class="edge"><title>resource_xqm&#45;&gt;wc_xqm</title>
<path fill="none" stroke="black" d="M711.551,-626.603C736.687,-618.637 770.232,-609.896 800,-602.637 970.948,-560.951 1012.71,-545.143 1186,-514.637 1237.11,-505.64 1296.45,-498.762 1335.47,-496.699"/>
<polygon fill="black" stroke="black" points="1336.08,-500.177 1345.92,-496.248 1335.78,-493.183 1336.08,-500.177"/>
</g>
<!-- lookuptable_xqm -->
<g id="node26" class="node"><title>lookuptable_xqm</title>
<a xlink:href="lookuptable_xqm.png" xlink:title="lookuptable.xqm">
<polygon fill="none" stroke="black" points="1150,-708.637 1030,-708.637 1030,-672.637 1150,-672.637 1150,-708.637"/>
<text text-anchor="middle" x="1090" y="-686.537" font-family="Times Roman,serif" font-size="14.00">lookuptable.xqm</text>
</a>
</g>
<!-- resource_xqm&#45;&gt;lookuptable_xqm -->
<g id="edge66" class="edge"><title>resource_xqm&#45;&gt;lookuptable_xqm</title>
<path fill="none" stroke="black" d="M724.551,-645.695C798.886,-651.272 936.397,-666.251 1019.9,-677.704"/>
<polygon fill="black" stroke="black" points="1019.42,-681.171 1029.81,-679.083 1020.39,-674.238 1019.42,-681.171"/>
</g>
<!-- fcs_xqm -->
<g id="node34" class="node"><title>fcs_xqm</title>
<a xlink:href="fcs_xqm.png" xlink:title="fcs.xqm">
<polygon fill="none" stroke="black" points="1123,-970.637 1057,-970.637 1057,-934.637 1123,-934.637 1123,-970.637"/>
<text text-anchor="middle" x="1090" y="-948.537" font-family="Times Roman,serif" font-size="14.00">fcs.xqm</text>
</a>
</g>
<!-- resource_xqm&#45;&gt;fcs_xqm -->
<g id="edge232" class="edge"><title>resource_xqm&#45;&gt;fcs_xqm</title>
<path fill="none" stroke="black" d="M724.789,-652.316C747.774,-658.52 775.185,-666.665 800,-673.637 885.828,-697.752 926.238,-666.703 994,-724.637 1055.16,-776.929 1078.74,-875.591 1086.59,-924.328"/>
<polygon fill="black" stroke="black" points="1083.17,-925.115 1088.11,-934.488 1090.09,-924.08 1083.17,-925.115"/>
</g>
<!-- resource_xqm&#45;&gt;handle_xqm -->
<g id="edge58" class="edge"><title>resource_xqm&#45;&gt;handle_xqm</title>
<path fill="none" stroke="black" d="M724.942,-648.014C738.522,-652.424 752.549,-658.901 764,-667.637 786.348,-684.686 777.487,-702.806 800,-719.637 812.466,-728.957 827.787,-735.647 842.539,-740.779"/>
<polygon fill="black" stroke="black" points="841.523,-744.129 852.116,-743.938 843.716,-737.481 841.523,-744.129"/>
</g>
<!-- toc_xqm -->
<g id="node48" class="node"><title>toc_xqm</title>
<a xlink:href="toc_xqm.png" xlink:title="toc.xqm">
<polygon fill="none" stroke="black" points="930,-832.637 864,-832.637 864,-796.637 930,-796.637 930,-832.637"/>
<text text-anchor="middle" x="897" y="-810.537" font-family="Times Roman,serif" font-size="14.00">toc.xqm</text>
</a>
</g>
<!-- resource_xqm&#45;&gt;toc_xqm -->
<g id="edge60" class="edge"><title>resource_xqm&#45;&gt;toc_xqm</title>
<path fill="none" stroke="black" d="M702.936,-662.721C721.54,-678.237 745.375,-701.11 764,-723.637 782.616,-746.153 776.417,-761.393 800,-778.637 815.716,-790.128 836.117,-796.731 854.152,-801.265"/>
<polygon fill="black" stroke="black" points="853.343,-804.671 863.883,-803.589 854.969,-797.862 853.343,-804.671"/>
</g>
<!-- crday_xqm -->
<g id="node78" class="node"><title>crday_xqm</title>
<a xlink:href="crday_xqm.png" xlink:title="crday.xqm">
<polygon fill="none" stroke="black" points="1533,-453.637 1453,-453.637 1453,-417.637 1533,-417.637 1533,-453.637"/>
<text text-anchor="middle" x="1493" y="-431.537" font-family="Times Roman,serif" font-size="14.00">crday.xqm</text>
</a>
</g>
<!-- resource_xqm&#45;&gt;crday_xqm -->
<g id="edge234" class="edge"><title>resource_xqm&#45;&gt;crday_xqm</title>
<path fill="none" stroke="black" d="M677.727,-626.438C689.927,-583.351 726.77,-474.811 800,-422.637 984.338,-291.304 1082.8,-301.677 1304,-349.637 1359.38,-361.644 1418,-391.326 1455.01,-412.453"/>
<polygon fill="black" stroke="black" points="1453.53,-415.641 1463.94,-417.624 1457.04,-409.584 1453.53,-415.641"/>
</g>
<!-- resourcefragment_xqm&#45;&gt;project_xqm -->
<g id="edge76" class="edge"><title>resourcefragment_xqm&#45;&gt;project_xqm</title>
<path fill="none" stroke="black" d="M817.174,-906.442C752.576,-904.415 659.867,-897.234 582,-874.637 565.019,-869.709 547.382,-861.572 532.397,-853.627"/>
<polygon fill="black" stroke="black" points="533.892,-850.456 523.438,-848.736 530.538,-856.6 533.892,-850.456"/>
</g>
<!-- resourcefragment_xqm&#45;&gt;resource_xqm -->
<g id="edge70" class="edge"><title>resourcefragment_xqm&#45;&gt;resource_xqm</title>
<path fill="none" stroke="black" d="M843.983,-888.583C828.012,-878.876 811.65,-865.971 800,-850.637 769.136,-810.013 791.125,-784.847 764,-741.637 746.257,-713.373 717.547,-687.678 697.122,-669.571"/>
<polygon fill="black" stroke="black" points="699.272,-666.798 689.472,-662.772 694.622,-672.031 699.272,-666.798"/>
</g>
<!-- resourcefragment_xqm&#45;&gt;index_xqm -->
<g id="edge78" class="edge"><title>resourcefragment_xqm&#45;&gt;index_xqm</title>
<path fill="none" stroke="black" d="M939.969,-924.771C959.788,-935.433 981.619,-950.933 994,-971.637 1036.17,-1042.16 969.136,-1284.44 1030,-1339.64 1089.32,-1393.44 1335.24,-1340.9 1442.54,-1314.63"/>
<polygon fill="black" stroke="black" points="1443.62,-1317.97 1452.49,-1312.17 1441.94,-1311.17 1443.62,-1317.97"/>
</g>
<!-- resourcefragment_xqm&#45;&gt;wc_xqm -->
<g id="edge72" class="edge"><title>resourcefragment_xqm&#45;&gt;wc_xqm</title>
<path fill="none" stroke="black" d="M959.887,-888.581C971.966,-883.355 983.963,-876.792 994,-868.637 1016.67,-850.214 1010.35,-835.255 1030,-813.637 1075.94,-763.099 1098.6,-762.614 1150,-717.637 1226.43,-650.753 1311.78,-566.366 1353.02,-524.938"/>
<polygon fill="black" stroke="black" points="1355.62,-527.278 1360.19,-517.716 1350.66,-522.344 1355.62,-527.278"/>
</g>
<!-- resourcefragment_xqm&#45;&gt;lookuptable_xqm -->
<g id="edge74" class="edge"><title>resourcefragment_xqm&#45;&gt;lookuptable_xqm</title>
<path fill="none" stroke="black" d="M956.643,-888.621C970.52,-883.573 984.11,-876.417 994,-865.637 1038.73,-816.877 992.394,-772.933 1028.3,-717.143"/>
<polygon fill="black" stroke="black" points="1031.27,-719.002 1034.21,-708.824 1025.57,-714.946 1031.27,-719.002"/>
</g>
<!-- resourcefragment_xqm&#45;&gt;fcs_xqm -->
<g id="edge80" class="edge"><title>resourcefragment_xqm&#45;&gt;fcs_xqm</title>
<path fill="none" stroke="black" d="M976.615,-918.955C1000.71,-924.431 1026.25,-930.828 1046.98,-936.656"/>
<polygon fill="black" stroke="black" points="1046.17,-940.063 1056.74,-939.464 1048.1,-933.336 1046.17,-940.063"/>
</g>
<!-- cr_xql -->
<g id="node10" class="node"><title>cr_xql</title>
<a xlink:href="cr_xql.png" xlink:title="cr.xql">
<polygon fill="none" stroke="black" points="342,-994.637 288,-994.637 288,-958.637 342,-958.637 342,-994.637"/>
<text text-anchor="middle" x="315" y="-972.537" font-family="Times Roman,serif" font-size="14.00">cr.xql</text>
</a>
</g>
<!-- cr_xql&#45;&gt;project_xqm -->
<g id="edge10" class="edge"><title>cr_xql&#45;&gt;project_xqm</title>
<path fill="none" stroke="black" d="M342.274,-972.954C362.102,-968.996 388.439,-960.919 406,-944.637 435.187,-917.576 415.863,-892.654 442,-862.637 444.333,-859.958 446.946,-857.431 449.727,-855.064"/>
<polygon fill="black" stroke="black" points="452.085,-857.667 457.911,-848.818 447.838,-852.103 452.085,-857.667"/>
</g>
<!-- cr_xql&#45;&gt;resource_xqm -->
<g id="edge12" class="edge"><title>cr_xql&#45;&gt;resource_xqm</title>
<path fill="none" stroke="black" d="M342.095,-966.828C360.859,-959.404 385.965,-948.186 406,-934.637 424.23,-922.308 423.525,-912.595 442,-900.637 483.989,-873.459 508.154,-890.338 546,-857.637 606.446,-805.408 645.986,-716.996 663.172,-672.288"/>
<polygon fill="black" stroke="black" points="666.543,-673.265 666.78,-662.673 659.99,-670.806 666.543,-673.265"/>
</g>
<!-- cr_xql&#45;&gt;resourcefragment_xqm -->
<g id="edge14" class="edge"><title>cr_xql&#45;&gt;resourcefragment_xqm</title>
<path fill="none" stroke="black" d="M342.29,-973.355C424.481,-963.469 672.281,-933.665 807.165,-917.442"/>
<polygon fill="black" stroke="black" points="807.962,-920.871 817.472,-916.202 807.126,-913.921 807.962,-920.871"/>
</g>
<!-- cr_xqm -->
<g id="node14" class="node"><title>cr_xqm</title>
<a xlink:href="cr_xqm.png" xlink:title="cr.xqm">
<polygon fill="none" stroke="black" points="1274,-394.637 1216,-394.637 1216,-358.637 1274,-358.637 1274,-394.637"/>
<text text-anchor="middle" x="1245" y="-372.537" font-family="Times Roman,serif" font-size="14.00">cr.xqm</text>
</a>
</g>
<!-- cr_xqm&#45;&gt;project_xqm -->
<g id="edge16" class="edge"><title>cr_xqm&#45;&gt;project_xqm</title>
<path fill="none" stroke="black" d="M1215.38,-377.879C1173.87,-379.775 1096.05,-383.901 1030,-390.637 927.326,-401.108 897.181,-387.889 800,-422.637 782.344,-428.95 781.247,-437.28 764,-444.637 687.054,-477.461 637.941,-430.438 582,-492.637 511.342,-571.2 578.21,-627.003 546,-727.637 537.316,-754.77 522.232,-783.544 510.539,-803.763"/>
<polygon fill="black" stroke="black" points="507.503,-802.021 505.44,-812.413 513.533,-805.575 507.503,-802.021"/>
</g>
<!-- cr_xqm&#45;&gt;resource_xqm -->
<g id="edge18" class="edge"><title>cr_xqm&#45;&gt;resource_xqm</title>
<path fill="none" stroke="black" d="M1215.22,-382.098C1121.31,-399.484 835.53,-453.749 800,-476.637 745.261,-511.899 705.222,-579.4 685.92,-617.223"/>
<polygon fill="black" stroke="black" points="682.571,-616.096 681.246,-626.607 688.837,-619.216 682.571,-616.096"/>
</g>
<!-- facs_xqm&#45;&gt;project_xqm -->
<g id="edge22" class="edge"><title>facs_xqm&#45;&gt;project_xqm</title>
<path fill="none" stroke="black" d="M1233.46,-800.783C1220.87,-821.008 1200.57,-854.916 1186,-885.637 1166.82,-926.056 1167.77,-938.58 1150,-979.637 1148.03,-984.198 998.08,-1298.8 994,-1301.64 988.222,-1305.65 617.813,-1355.97 582,-1323.64 523.64,-1270.94 563.744,-1048.24 546,-971.637 536.614,-931.115 518.752,-886.382 506.611,-858.397"/>
<polygon fill="black" stroke="black" points="509.655,-856.626 502.423,-848.883 503.249,-859.446 509.655,-856.626"/>
</g>
<!-- facs_xqm&#45;&gt;resource_xqm -->
<g id="edge26" class="edge"><title>facs_xqm&#45;&gt;resource_xqm</title>
<path fill="none" stroke="black" d="M1233.31,-764.226C1218.42,-738.363 1189.75,-693.036 1150,-672.637 1015.18,-603.449 829.626,-623.399 734.576,-637.174"/>
<polygon fill="black" stroke="black" points="733.936,-633.73 724.553,-638.65 734.957,-640.655 733.936,-633.73"/>
</g>
<!-- facs_xqm&#45;&gt;resourcefragment_xqm -->
<g id="edge24" class="edge"><title>facs_xqm&#45;&gt;resourcefragment_xqm</title>
<path fill="none" stroke="black" d="M1207.71,-796.736C1158.81,-815.127 1070.27,-848.088 994,-874.637 983.806,-878.186 972.977,-881.856 962.389,-885.389"/>
<polygon fill="black" stroke="black" points="961.146,-882.114 952.76,-888.588 963.353,-888.757 961.146,-882.114"/>
</g>
<!-- facs_xqm&#45;&gt;index_xqm -->
<g id="edge20" class="edge"><title>facs_xqm&#45;&gt;index_xqm</title>
<path fill="none" stroke="black" d="M1256.19,-800.956C1268.47,-821.332 1288.5,-855.372 1304,-885.637 1377.43,-1029.02 1453.29,-1206.7 1481.52,-1274.03"/>
<polygon fill="black" stroke="black" points="1478.4,-1275.64 1485.49,-1283.51 1484.86,-1272.94 1478.4,-1275.64"/>
</g>
<!-- facs_xqm&#45;&gt;wc_xqm -->
<g id="edge28" class="edge"><title>facs_xqm&#45;&gt;wc_xqm</title>
<path fill="none" stroke="black" d="M1282.25,-768.93C1290.51,-764.285 1298.46,-758.276 1304,-750.637 1356.02,-678.954 1306.07,-636.449 1340,-554.637 1344.13,-544.667 1350.28,-534.682 1356.43,-526.009"/>
<polygon fill="black" stroke="black" points="1359.36,-527.938 1362.51,-517.823 1353.74,-523.766 1359.36,-527.938"/>
</g>
<!-- index_xqm&#45;&gt;project_xqm -->
<g id="edge30" class="edge"><title>index_xqm&#45;&gt;project_xqm</title>
<path fill="none" stroke="black" d="M1475.11,-1319.82C1435.74,-1352.11 1337.68,-1414.64 1245,-1414.64 897,-1414.64 897,-1414.64 897,-1414.64 754.227,-1414.64 677.748,-1457.54 582,-1351.64 526.45,-1290.19 564.482,-1061.38 546,-980.637 535.958,-936.765 515.839,-887.997 503.782,-858.098"/>
<polygon fill="black" stroke="black" points="506.993,-856.7 500.029,-848.715 500.494,-859.3 506.993,-856.7"/>
</g>
<!-- wc_xqm&#45;&gt;project_xqm -->
<g id="edge98" class="edge"><title>wc_xqm&#45;&gt;project_xqm</title>
<path fill="none" stroke="black" d="M1345.63,-492.914C1225.9,-470.1 803.579,-408.185 582,-617.637 544.618,-652.974 565.648,-680.097 546,-727.637 535.102,-754.007 520.232,-782.92 509.185,-803.382"/>
<polygon fill="black" stroke="black" points="505.969,-801.969 504.255,-812.424 512.115,-805.32 505.969,-801.969"/>
</g>
<!-- wc_xqm&#45;&gt;resource_xqm -->
<g id="edge96" class="edge"><title>wc_xqm&#45;&gt;resource_xqm</title>
<path fill="none" stroke="black" d="M1345.92,-509.069C1307.68,-515.488 1241.91,-522.794 1186,-532.637 1012.71,-563.143 970.948,-578.951 800,-620.637 778.603,-625.855 755.254,-631.838 734.479,-636.78"/>
<polygon fill="black" stroke="black" points="733.446,-633.427 724.507,-639.114 735.042,-640.243 733.446,-633.427"/>
</g>
<!-- lookuptable_xqm&#45;&gt;project_xqm -->
<g id="edge34" class="edge"><title>lookuptable_xqm&#45;&gt;project_xqm</title>
<path fill="none" stroke="black" d="M1045.94,-708.757C1039.99,-712.651 1034.42,-717.253 1030,-722.637 994.942,-765.348 1038.37,-808.704 994,-841.637 925.053,-892.812 664.2,-858.347 549.119,-840.025"/>
<polygon fill="black" stroke="black" points="549.537,-836.547 539.107,-838.413 548.424,-843.458 549.537,-836.547"/>
</g>
<!-- lookuptable_xqm&#45;&gt;resource_xqm -->
<g id="edge32" class="edge"><title>lookuptable_xqm&#45;&gt;resource_xqm</title>
<path fill="none" stroke="black" d="M1029.81,-688.911C951.21,-682.671 814.318,-667.588 734.891,-656.431"/>
<polygon fill="black" stroke="black" points="734.945,-652.903 724.551,-654.953 733.955,-659.832 734.945,-652.903"/>
</g>
<!-- lookuptable_xqm&#45;&gt;resourcefragment_xqm -->
<g id="edge36" class="edge"><title>lookuptable_xqm&#45;&gt;resourcefragment_xqm</title>
<path fill="none" stroke="black" d="M1060.52,-708.714C1049.46,-714.401 1037.71,-721.632 1030,-731.637 987.616,-786.622 1040.93,-832.479 994,-883.637 991.389,-886.483 988.52,-889.077 985.456,-891.434"/>
<polygon fill="black" stroke="black" points="983.298,-888.667 976.933,-897.136 987.19,-894.485 983.298,-888.667"/>
</g>
<!-- master_xqm -->
<g id="node30" class="node"><title>master_xqm</title>
<a xlink:href="master_xqm.png" xlink:title="master.xqm">
<polygon fill="none" stroke="black" points="539,-718.637 449,-718.637 449,-682.637 539,-682.637 539,-718.637"/>
<text text-anchor="middle" x="494" y="-696.537" font-family="Times Roman,serif" font-size="14.00">master.xqm</text>
</a>
</g>
<!-- master_xqm&#45;&gt;resource_xqm -->
<g id="edge38" class="edge"><title>master_xqm&#45;&gt;resource_xqm</title>
<path fill="none" stroke="black" d="M539.169,-686.506C561.107,-679.643 587.798,-671.292 611.556,-663.86"/>
<polygon fill="black" stroke="black" points="612.689,-667.172 621.188,-660.846 610.599,-660.492 612.689,-667.172"/>
</g>
<!-- prep_data_xql -->
<g id="node32" class="node"><title>prep_data_xql</title>
<a xlink:href="prep-data_xql.png" xlink:title="prep&#45;data.xql">
<polygon fill="none" stroke="black" points="543,-1016.64 445,-1016.64 445,-980.637 543,-980.637 543,-1016.64"/>
<text text-anchor="middle" x="494" y="-994.537" font-family="Times Roman,serif" font-size="14.00">prep&#45;data.xql</text>
</a>
</g>
<!-- prep_data_xql&#45;&gt;resource_xqm -->
<g id="edge42" class="edge"><title>prep_data_xql&#45;&gt;resource_xqm</title>
<path fill="none" stroke="black" d="M509.289,-980.393C520.326,-966.697 535.138,-947.188 546,-928.637 598.322,-839.279 643.504,-724.479 662.896,-672.461"/>
<polygon fill="black" stroke="black" points="666.238,-673.514 666.425,-662.921 659.673,-671.086 666.238,-673.514"/>
</g>
<!-- prep_data_xql&#45;&gt;resourcefragment_xqm -->
<g id="edge44" class="edge"><title>prep_data_xql&#45;&gt;resourcefragment_xqm</title>
<path fill="none" stroke="black" d="M543.73,-992.017C598.254,-984.245 688.094,-969.926 764,-950.637 780.346,-946.483 783.992,-943.946 800,-938.637 810.438,-935.176 821.512,-931.513 832.3,-927.951"/>
<polygon fill="black" stroke="black" points="833.702,-931.174 842.101,-924.715 831.508,-924.526 833.702,-931.174"/>
</g>
<!-- prep_data_xql&#45;&gt;fcs_xqm -->
<g id="edge40" class="edge"><title>prep_data_xql&#45;&gt;fcs_xqm</title>
<path fill="none" stroke="black" d="M522.795,-1016.75C543.493,-1029.36 569.814,-1044.47 582,-1047.64 660.293,-1067.97 695.648,-1090.89 764,-1047.64 795.583,-1027.65 769.088,-992.646 800,-971.637 838.998,-945.133 975.634,-947.202 1046.55,-950.25"/>
<polygon fill="black" stroke="black" points="1046.78,-953.764 1056.93,-950.723 1047.1,-946.771 1046.78,-953.764"/>
</g>
<!-- fcs_xqm&#45;&gt;project_xqm -->
<g id="edge158" class="edge"><title>fcs_xqm&#45;&gt;project_xqm</title>
<path fill="none" stroke="black" d="M1084.8,-970.847C1074.14,-1004.34 1046.28,-1074.92 994,-1103.64 918.426,-1145.14 885.542,-1114.45 800,-1103.64 700.755,-1091.09 657.306,-1113.48 582,-1047.64 574.44,-1041.03 526.105,-915.292 504.458,-858.302"/>
<polygon fill="black" stroke="black" points="507.681,-856.93 500.862,-848.821 501.136,-859.412 507.681,-856.93"/>
</g>
<!-- fcs_xqm&#45;&gt;resource_xqm -->
<g id="edge160" class="edge"><title>fcs_xqm&#45;&gt;resource_xqm</title>
<path fill="none" stroke="black" d="M1086.61,-934.615C1078.78,-893.754 1055.21,-794.972 994,-742.637 926.238,-684.703 885.828,-715.752 800,-691.637 772.25,-683.84 741.255,-674.577 716.832,-666.095"/>
<polygon fill="black" stroke="black" points="717.732,-662.7 707.137,-662.639 715.382,-669.293 717.732,-662.7"/>
</g>
<!-- fcs_xqm&#45;&gt;resourcefragment_xqm -->
<g id="edge164" class="edge"><title>fcs_xqm&#45;&gt;resourcefragment_xqm</title>
<path fill="none" stroke="black" d="M1056.82,-949.971C1029.56,-945.021 990.234,-936.004 957.413,-927.348"/>
<polygon fill="black" stroke="black" points="958.022,-923.887 947.456,-924.677 956.208,-930.648 958.022,-923.887"/>
</g>
<!-- fcs_xqm&#45;&gt;cr_xqm -->
<g id="edge146" class="edge"><title>fcs_xqm&#45;&gt;cr_xqm</title>
<path fill="none" stroke="black" d="M1094.89,-934.447C1117.31,-851.151 1210.23,-505.852 1237.47,-404.638"/>
<polygon fill="black" stroke="black" points="1240.89,-405.397 1240.1,-394.831 1234.13,-403.578 1240.89,-405.397"/>
</g>
<!-- fcs_xqm&#45;&gt;facs_xqm -->
<g id="edge154" class="edge"><title>fcs_xqm&#45;&gt;facs_xqm</title>
<path fill="none" stroke="black" d="M1101.09,-934.578C1121.56,-901.604 1165.12,-833.321 1186,-814.637 1190.07,-810.995 1194.63,-807.613 1199.36,-804.519"/>
<polygon fill="black" stroke="black" points="1201.27,-807.454 1207.99,-799.266 1197.63,-801.474 1201.27,-807.454"/>
</g>
<!-- fcs_xqm&#45;&gt;index_xqm -->
<g id="edge162" class="edge"><title>fcs_xqm&#45;&gt;index_xqm</title>
<path fill="none" stroke="black" d="M1092.38,-970.682C1099.02,-1014.1 1121.73,-1125.4 1186,-1187.64 1205.13,-1206.16 1360.74,-1258.65 1442.78,-1285.45"/>
<polygon fill="black" stroke="black" points="1441.81,-1288.82 1452.41,-1288.59 1443.98,-1282.16 1441.81,-1288.82"/>
</g>
<!-- fcs_xqm&#45;&gt;wc_xqm -->
<g id="edge156" class="edge"><title>fcs_xqm&#45;&gt;wc_xqm</title>
<path fill="none" stroke="black" d="M1100.94,-934.517C1116.69,-910 1148.06,-866.581 1186,-842.637 1232.05,-813.573 1268.13,-850.607 1304,-809.637 1379.4,-723.525 1298.35,-661.248 1340,-554.637 1343.93,-544.583 1350.02,-534.576 1356.18,-525.908"/>
<polygon fill="black" stroke="black" points="1359.1,-527.839 1362.29,-517.734 1353.5,-523.649 1359.1,-527.839"/>
</g>
<!-- diagnostics_xqm -->
<g id="node80" class="node"><title>diagnostics_xqm</title>
<a xlink:href="diagnostics_xqm.png" xlink:title="diagnostics.xqm">
<polygon fill="none" stroke="black" points="1689,-930.637 1571,-930.637 1571,-894.637 1689,-894.637 1689,-930.637"/>
<text text-anchor="middle" x="1630" y="-908.537" font-family="Times Roman,serif" font-size="14.00">diagnostics.xqm</text>
</a>
</g>
<!-- fcs_xqm&#45;&gt;diagnostics_xqm -->
<g id="edge144" class="edge"><title>fcs_xqm&#45;&gt;diagnostics_xqm</title>
<path fill="none" stroke="black" d="M1123.22,-951.672C1197.17,-949.309 1380.94,-942.249 1534,-926.637 1542.58,-925.762 1551.57,-924.676 1560.47,-923.499"/>
<polygon fill="black" stroke="black" points="1561,-926.959 1570.44,-922.138 1560.06,-920.023 1561,-926.959"/>
</g>
<!-- cmd_check_xqm -->
<g id="node89" class="node"><title>cmd_check_xqm</title>
<a xlink:href="cmd-check_xqm.png" xlink:title="cmd&#45;check.xqm">
<polygon fill="none" stroke="black" points="1303,-930.637 1187,-930.637 1187,-894.637 1303,-894.637 1303,-930.637"/>
<text text-anchor="middle" x="1245" y="-908.537" font-family="Times Roman,serif" font-size="14.00">cmd&#45;check.xqm</text>
</a>
</g>
<!-- fcs_xqm&#45;&gt;cmd_check_xqm -->
<g id="edge148" class="edge"><title>fcs_xqm&#45;&gt;cmd_check_xqm</title>
<path fill="none" stroke="black" d="M1123.25,-938.399C1138.86,-933.501 1158.07,-928.193 1176.58,-923.586"/>
<polygon fill="black" stroke="black" points="1177.58,-926.945 1186.46,-921.176 1175.92,-920.144 1177.58,-926.945"/>
</g>
<!-- cql_xqm -->
<g id="node119" class="node"><title>cql_xqm</title>
<a xlink:href="cql_xqm.png" xlink:title="cql.xqm">
<polygon fill="none" stroke="black" points="1411,-1178.64 1345,-1178.64 1345,-1142.64 1411,-1142.64 1411,-1178.64"/>
<text text-anchor="middle" x="1378" y="-1156.54" font-family="Times Roman,serif" font-size="14.00">cql.xqm</text>
</a>
</g>
<!-- fcs_xqm&#45;&gt;cql_xqm -->
<g id="edge150" class="edge"><title>fcs_xqm&#45;&gt;cql_xqm</title>
<path fill="none" stroke="black" d="M1123.1,-968.402C1166.89,-990.092 1245.36,-1031.92 1304,-1079.64 1324.06,-1095.96 1343.66,-1117.76 1357.64,-1134.63"/>
<polygon fill="black" stroke="black" points="1355,-1136.93 1364.03,-1142.47 1360.43,-1132.5 1355,-1136.93"/>
</g>
<!-- query_xqm -->
<g id="node121" class="node"><title>query_xqm</title>
<a xlink:href="query_xqm.png" xlink:title="query.xqm">
<polygon fill="none" stroke="black" points="1286,-1178.64 1204,-1178.64 1204,-1142.64 1286,-1142.64 1286,-1178.64"/>
<text text-anchor="middle" x="1245" y="-1156.54" font-family="Times Roman,serif" font-size="14.00">query.xqm</text>
</a>
</g>
<!-- fcs_xqm&#45;&gt;query_xqm -->
<g id="edge152" class="edge"><title>fcs_xqm&#45;&gt;query_xqm</title>
<path fill="none" stroke="black" d="M1095.25,-970.737C1106.4,-1006.35 1135.67,-1086.17 1186,-1133.64 1188.74,-1136.22 1191.78,-1138.6 1194.98,-1140.76"/>
<polygon fill="black" stroke="black" points="1193.39,-1143.89 1203.76,-1146.04 1196.99,-1137.89 1193.39,-1143.89"/>
</g>
<!-- prepdata_xqm -->
<g id="node37" class="node"><title>prepdata_xqm</title>
<a xlink:href="prepdata_xqm.png" xlink:title="prepdata.xqm">
<polygon fill="none" stroke="black" points="545,-402.637 443,-402.637 443,-366.637 545,-366.637 545,-402.637"/>
<text text-anchor="middle" x="494" y="-380.537" font-family="Times Roman,serif" font-size="14.00">prepdata.xqm</text>
</a>
</g>
<!-- prepdata_xqm&#45;&gt;resource_xqm -->
<g id="edge46" class="edge"><title>prepdata_xqm&#45;&gt;resource_xqm</title>
<path fill="none" stroke="black" d="M528.877,-402.639C535.009,-406.732 541.015,-411.431 546,-416.637 604.41,-477.641 645.092,-570.688 662.895,-616.771"/>
<polygon fill="black" stroke="black" points="659.723,-618.277 666.54,-626.387 666.268,-615.796 659.723,-618.277"/>
</g>
<!-- workingcopy_xqm -->
<g id="node40" class="node"><title>workingcopy_xqm</title>
<ellipse fill="none" stroke="black" cx="673" cy="-384.637" rx="89.8356" ry="18"/>
<text text-anchor="middle" x="673" y="-380.537" font-family="Times Roman,serif" font-size="14.00">workingcopy_xqm</text>
</g>
<!-- prepdata_xqm&#45;&gt;workingcopy_xqm -->
<g id="edge48" class="edge"><title>prepdata_xqm&#45;&gt;workingcopy_xqm</title>
<path fill="none" stroke="black" d="M545.774,-384.637C554.101,-384.637 562.962,-384.637 571.981,-384.637"/>
<polygon fill="black" stroke="black" points="572.212,-388.137 582.212,-384.637 572.212,-381.137 572.212,-388.137"/>
</g>
<!-- handle_xqm&#45;&gt;project_xqm -->
<g id="edge222" class="edge"><title>handle_xqm&#45;&gt;project_xqm</title>
<path fill="none" stroke="black" d="M852.234,-772.849C777.972,-788.703 629.528,-814.612 549.004,-825.894"/>
<polygon fill="black" stroke="black" points="548.487,-822.432 539.056,-827.259 549.439,-829.367 548.487,-822.432"/>
</g>
<!-- handle_xqm&#45;&gt;resource_xqm -->
<g id="edge224" class="edge"><title>handle_xqm&#45;&gt;resource_xqm</title>
<path fill="none" stroke="black" d="M852.116,-760.624C834.636,-756.452 815.197,-748.998 800,-737.637 777.487,-720.806 786.348,-702.686 764,-685.637 753.284,-677.462 740.311,-671.264 727.56,-666.329"/>
<polygon fill="black" stroke="black" points="728.487,-662.941 717.893,-662.789 726.08,-669.514 728.487,-662.941"/>
</g>
<!-- toc_xqm&#45;&gt;project_xqm -->
<g id="edge82" class="edge"><title>toc_xqm&#45;&gt;project_xqm</title>
<path fill="none" stroke="black" d="M863.824,-815.954C794.637,-818.701 634.333,-825.065 549.292,-828.442"/>
<polygon fill="black" stroke="black" points="548.909,-824.954 539.056,-828.848 549.187,-831.949 548.909,-824.954"/>
</g>
<!-- toc_xqm&#45;&gt;resource_xqm -->
<g id="edge84" class="edge"><title>toc_xqm&#45;&gt;resource_xqm</title>
<path fill="none" stroke="black" d="M863.883,-819.122C843.833,-817.009 818.626,-810.256 800,-796.637 776.417,-779.393 782.616,-764.153 764,-741.637 742.365,-715.469 713.701,-688.836 694.371,-669.851"/>
<polygon fill="black" stroke="black" points="696.761,-667.291 687.205,-662.714 691.821,-672.251 696.761,-667.291"/>
</g>
<!-- toc_xqm&#45;&gt;wc_xqm -->
<g id="edge90" class="edge"><title>toc_xqm&#45;&gt;wc_xqm</title>
<path fill="none" stroke="black" d="M930.28,-813.365C951.164,-810.832 977.221,-804.231 994,-787.637 1034.8,-747.284 992.747,-707.288 1030,-663.637 1072.44,-613.902 1253.52,-544.314 1336.35,-514.332"/>
<polygon fill="black" stroke="black" points="1337.72,-517.557 1345.95,-510.876 1335.35,-510.97 1337.72,-517.557"/>
</g>
<!-- toc_xqm&#45;&gt;lookuptable_xqm -->
<g id="edge86" class="edge"><title>toc_xqm&#45;&gt;lookuptable_xqm</title>
<path fill="none" stroke="black" d="M930.022,-811.904C950.283,-808.767 975.752,-802.042 994,-787.637 1019.92,-767.175 1006.46,-745.803 1030,-722.637 1033.03,-719.656 1036.39,-716.88 1039.94,-714.311"/>
<polygon fill="black" stroke="black" points="1042.04,-717.118 1048.46,-708.693 1038.19,-711.273 1042.04,-717.118"/>
</g>
<!-- toc_xqm&#45;&gt;fcs_xqm -->
<g id="edge88" class="edge"><title>toc_xqm&#45;&gt;fcs_xqm</title>
<path fill="none" stroke="black" d="M924.895,-832.695C944.444,-845.503 971.071,-863.259 994,-879.637 1016.01,-895.362 1040.26,-913.81 1058.88,-928.227"/>
<polygon fill="black" stroke="black" points="1056.97,-931.172 1067.01,-934.542 1061.26,-925.644 1056.97,-931.172"/>
</g>
<!-- view_xql -->
<g id="node64" class="node"><title>view_xql</title>
<a xlink:href="view_xql.png" xlink:title="view.xql">
<polygon fill="none" stroke="black" points="127,-879.637 61,-879.637 61,-843.637 127,-843.637 127,-879.637"/>
<text text-anchor="middle" x="94" y="-857.537" font-family="Times Roman,serif" font-size="14.00">view.xql</text>
</a>
</g>
<!-- view_xql&#45;&gt;templates_xql -->
<g id="edge92" class="edge"><title>view_xql&#45;&gt;templates_xql</title>
<path fill="none" stroke="black" d="M127.208,-867.781C147.838,-873.356 173.168,-883.723 188,-902.637 246.165,-976.807 154.092,-1048.41 224,-1111.64 253.73,-1138.52 363.753,-1138.01 433.843,-1134.68"/>
<polygon fill="black" stroke="black" points="434.07,-1138.17 443.88,-1134.17 433.715,-1131.18 434.07,-1138.17"/>
</g>
<!-- projectAdmin_xqm -->
<g id="node67" class="node"><title>projectAdmin_xqm</title>
<a xlink:href="projectAdmin_xqm.png" xlink:title="projectAdmin.xqm">
<polygon fill="none" stroke="black" points="380,-756.637 250,-756.637 250,-720.637 380,-720.637 380,-756.637"/>
<text text-anchor="middle" x="315" y="-734.537" font-family="Times Roman,serif" font-size="14.00">projectAdmin.xqm</text>
</a>
</g>
<!-- view_xql&#45;&gt;projectAdmin_xqm -->
<g id="edge94" class="edge"><title>view_xql&#45;&gt;projectAdmin_xqm</title>
<path fill="none" stroke="black" d="M127.009,-858.244C146.539,-854.78 170.749,-847.779 188,-833.637 214.445,-811.957 197.543,-787.303 224,-765.637 228.853,-761.663 234.274,-758.274 239.988,-755.383"/>
<polygon fill="black" stroke="black" points="241.493,-758.544 249.168,-751.24 238.613,-752.164 241.493,-758.544"/>
</g>
<!-- projectAdmin_xqm&#45;&gt;project_xqm -->
<g id="edge192" class="edge"><title>projectAdmin_xqm&#45;&gt;project_xqm</title>
<path fill="none" stroke="black" d="M380.617,-754.175C389.414,-757.378 398.113,-761.171 406,-765.637 424.888,-776.331 424.679,-785.557 442,-798.637 445.817,-801.52 449.904,-804.38 454.048,-807.137"/>
<polygon fill="black" stroke="black" points="452.261,-810.15 462.563,-812.624 456.053,-804.265 452.261,-810.15"/>
</g>
<!-- projectAdmin_xqm&#45;&gt;resource_xqm -->
<g id="edge194" class="edge"><title>projectAdmin_xqm&#45;&gt;resource_xqm</title>
<path fill="none" stroke="black" d="M380.612,-744.543C427.766,-746.64 492.239,-745.049 546,-727.637 583.597,-715.46 620.748,-689.046 645.062,-669.266"/>
<polygon fill="black" stroke="black" points="647.34,-671.924 652.797,-662.843 642.868,-666.539 647.34,-671.924"/>
</g>
<!-- login_xql -->
<g id="node70" class="node"><title>login_xql</title>
<a xlink:href="login_xql.png" xlink:title="login.xql">
<polygon fill="none" stroke="black" points="349,-394.637 281,-394.637 281,-358.637 349,-358.637 349,-394.637"/>
<text text-anchor="middle" x="315" y="-372.537" font-family="Times Roman,serif" font-size="14.00">login.xql</text>
</a>
</g>
<!-- kickstrap_xql -->
<g id="node71" class="node"><title>kickstrap_xql</title>
<a xlink:href="kickstrap_xql.png" xlink:title="kickstrap.xql">
<polygon fill="none" stroke="black" points="140,-947.637 48,-947.637 48,-911.637 140,-911.637 140,-947.637"/>
<text text-anchor="middle" x="94" y="-925.537" font-family="Times Roman,serif" font-size="14.00">kickstrap.xql</text>
</a>
</g>
<!-- admin_xql -->
<g id="node72" class="node"><title>admin_xql</title>
<a xlink:href="admin_xql.png" xlink:title="admin.xql">
<polygon fill="none" stroke="black" points="1416,-774.637 1340,-774.637 1340,-738.637 1416,-738.637 1416,-774.637"/>
<text text-anchor="middle" x="1378" y="-752.537" font-family="Times Roman,serif" font-size="14.00">admin.xql</text>
</a>
</g>
<!-- admin_xql&#45;&gt;crday_xqm -->
<g id="edge100" class="edge"><title>admin_xql&#45;&gt;crday_xqm</title>
<path fill="none" stroke="black" d="M1391.38,-738.476C1399.39,-726.949 1409.28,-711.46 1416,-696.637 1452.81,-615.465 1477.18,-512.186 1487.46,-463.467"/>
<polygon fill="black" stroke="black" points="1490.89,-464.156 1489.49,-453.654 1484.04,-462.735 1490.89,-464.156"/>
</g>
<!-- admin_xql&#45;&gt;diagnostics_xqm -->
<g id="edge102" class="edge"><title>admin_xql&#45;&gt;diagnostics_xqm</title>
<path fill="none" stroke="black" d="M1407.4,-774.837C1453.21,-803.194 1541.59,-857.904 1592.11,-889.183"/>
<polygon fill="black" stroke="black" points="1590.44,-892.265 1600.79,-894.552 1594.13,-886.313 1590.44,-892.265"/>
</g>
<!-- dashboard_xql -->
<g id="node73" class="node"><title>dashboard_xql</title>
<a xlink:href="dashboard_xql.png" xlink:title="dashboard.xql">
<polygon fill="none" stroke="black" points="146,-1002.64 42,-1002.64 42,-966.637 146,-966.637 146,-1002.64"/>
<text text-anchor="middle" x="94" y="-980.537" font-family="Times Roman,serif" font-size="14.00">dashboard.xql</text>
</a>
</g>
<!-- generateproject_xql -->
<g id="node74" class="node"><title>generateproject_xql</title>
<a xlink:href="generateproject_xql.png" xlink:title="generateproject.xql">
<polygon fill="none" stroke="black" points="163,-1058.64 25,-1058.64 25,-1022.64 163,-1022.64 163,-1058.64"/>
<text text-anchor="middle" x="94" y="-1036.54" font-family="Times Roman,serif" font-size="14.00">generateproject.xql</text>
</a>
</g>
<!-- main_xqm -->
<g id="node75" class="node"><title>main_xqm</title>
<a xlink:href="main_xqm.png" xlink:title="main.xqm">
<polygon fill="none" stroke="black" points="132,-1116.64 56,-1116.64 56,-1080.64 132,-1080.64 132,-1116.64"/>
<text text-anchor="middle" x="94" y="-1094.54" font-family="Times Roman,serif" font-size="14.00">main.xqm</text>
</a>
</g>
<!-- new_xql -->
<g id="node76" class="node"><title>new_xql</title>
<a xlink:href="new_xql.png" xlink:title="new.xql">
<polygon fill="none" stroke="black" points="125,-1178.64 63,-1178.64 63,-1142.64 125,-1142.64 125,-1178.64"/>
<text text-anchor="middle" x="94" y="-1156.54" font-family="Times Roman,serif" font-size="14.00">new.xql</text>
</a>
</g>
<!-- crday_xqm&#45;&gt;diagnostics_xqm -->
<g id="edge110" class="edge"><title>crday_xqm&#45;&gt;diagnostics_xqm</title>
<path fill="none" stroke="black" d="M1498.2,-453.753C1519.06,-526.36 1596.68,-796.612 1621.97,-884.69"/>
<polygon fill="black" stroke="black" points="1618.67,-885.857 1624.79,-894.502 1625.39,-883.925 1618.67,-885.857"/>
</g>
<!-- aqay_xql -->
<g id="node81" class="node"><title>aqay_xql</title>
<a xlink:href="aqay_xql.png" xlink:title="aqay.xql">
<polygon fill="none" stroke="black" points="1412,-185.637 1344,-185.637 1344,-149.637 1412,-149.637 1412,-185.637"/>
<text text-anchor="middle" x="1378" y="-163.537" font-family="Times Roman,serif" font-size="14.00">aqay.xql</text>
</a>
</g>
<!-- aqay_xql&#45;&gt;crday_xqm -->
<g id="edge106" class="edge"><title>aqay_xql&#45;&gt;crday_xqm</title>
<path fill="none" stroke="black" d="M1403.69,-185.84C1408.25,-189.97 1412.63,-194.631 1416,-199.637 1427.93,-217.336 1467.51,-348.969 1484.8,-407.602"/>
<polygon fill="black" stroke="black" points="1481.48,-408.727 1487.66,-417.333 1488.2,-406.752 1481.48,-408.727"/>
</g>
<!-- aqay_xql&#45;&gt;diagnostics_xqm -->
<g id="edge104" class="edge"><title>aqay_xql&#45;&gt;diagnostics_xqm</title>
<path fill="none" stroke="black" d="M1402.13,-185.713C1407.03,-189.978 1411.93,-194.725 1416,-199.637 1484.1,-281.741 1497.31,-308.473 1534,-408.637 1597.64,-582.38 1621.21,-806.012 1627.84,-884.169"/>
<polygon fill="black" stroke="black" points="1624.35,-884.532 1628.66,-894.212 1631.33,-883.959 1624.35,-884.532"/>
</g>
<!-- tests_xqm -->
<g id="node85" class="node"><title>tests_xqm</title>
<a xlink:href="tests_xqm.png" xlink:title="tests.xqm">
<polygon fill="none" stroke="black" points="1532,-158.637 1454,-158.637 1454,-122.637 1532,-122.637 1532,-158.637"/>
<text text-anchor="middle" x="1493" y="-136.537" font-family="Times Roman,serif" font-size="14.00">tests.xqm</text>
</a>
</g>
<!-- aqay_xql&#45;&gt;tests_xqm -->
<g id="edge108" class="edge"><title>aqay_xql&#45;&gt;tests_xqm</title>
<path fill="none" stroke="black" d="M1412.19,-159.609C1422.13,-157.277 1433.18,-154.682 1443.84,-152.179"/>
<polygon fill="black" stroke="black" points="1444.96,-155.512 1453.89,-149.819 1443.36,-148.697 1444.96,-155.512"/>
</g>
<!-- tests_xql -->
<g id="node87" class="node"><title>tests_xql</title>
<a xlink:href="tests_xql.png" xlink:title="tests.xql">
<polygon fill="none" stroke="black" points="1412,-131.637 1344,-131.637 1344,-95.637 1412,-95.637 1412,-131.637"/>
<text text-anchor="middle" x="1378" y="-109.537" font-family="Times Roman,serif" font-size="14.00">tests.xql</text>
</a>
</g>
<!-- tests_xql&#45;&gt;tests_xqm -->
<g id="edge112" class="edge"><title>tests_xql&#45;&gt;tests_xqm</title>
<path fill="none" stroke="black" d="M1412.5,-121.738C1422.33,-124.045 1433.23,-126.604 1443.75,-129.075"/>
<polygon fill="black" stroke="black" points="1443.14,-132.527 1453.68,-131.405 1444.74,-125.712 1443.14,-132.527"/>
</g>
<!-- cmd_check_xqm&#45;&gt;fcs_xqm -->
<g id="edge114" class="edge"><title>cmd_check_xqm&#45;&gt;fcs_xqm</title>
<path fill="none" stroke="black" d="M1199.16,-930.688C1178.32,-936.8 1153.79,-943.099 1133.27,-947.597"/>
<polygon fill="black" stroke="black" points="1132.31,-944.222 1123.25,-949.713 1133.76,-951.071 1132.31,-944.222"/>
</g>
<!-- cmd_check_xqm&#45;&gt;crday_xqm -->
<g id="edge116" class="edge"><title>cmd_check_xqm&#45;&gt;crday_xqm</title>
<path fill="none" stroke="black" d="M1285.63,-894.469C1292.57,-889.831 1299.11,-884.243 1304,-877.637 1344.26,-823.217 1313.66,-791.996 1340,-729.637 1364.71,-671.137 1386.12,-664.676 1416,-608.637 1442.6,-558.734 1468.22,-497.783 1482.17,-463.164"/>
<polygon fill="black" stroke="black" points="1485.48,-464.302 1485.94,-453.717 1478.98,-461.702 1485.48,-464.302"/>
</g>
<!-- cmd_check_xqm&#45;&gt;diagnostics_xqm -->
<g id="edge120" class="edge"><title>cmd_check_xqm&#45;&gt;diagnostics_xqm</title>
<path fill="none" stroke="black" d="M1303.89,-912.637C1372.9,-912.637 1487.1,-912.637 1560.42,-912.637"/>
<polygon fill="black" stroke="black" points="1560.48,-916.137 1570.48,-912.637 1560.48,-909.137 1560.48,-916.137"/>
</g>
<!-- smc_xqm -->
<g id="node93" class="node"><title>smc_xqm</title>
<a xlink:href="smc_xqm.png" xlink:title="smc.xqm">
<polygon fill="none" stroke="black" points="1415,-599.637 1341,-599.637 1341,-563.637 1415,-563.637 1415,-599.637"/>
<text text-anchor="middle" x="1378" y="-577.537" font-family="Times Roman,serif" font-size="14.00">smc.xqm</text>
</a>
</g>
<!-- cmd_check_xqm&#45;&gt;smc_xqm -->
<g id="edge118" class="edge"><title>cmd_check_xqm&#45;&gt;smc_xqm</title>
<path fill="none" stroke="black" d="M1289.52,-894.482C1295.07,-890.622 1300.14,-886.039 1304,-880.637 1359.61,-802.91 1312.67,-760.217 1340,-668.637 1346.15,-648.041 1355.89,-625.853 1363.97,-609.039"/>
<polygon fill="black" stroke="black" points="1367.24,-610.332 1368.5,-599.813 1360.95,-607.248 1367.24,-610.332"/>
</g>
<!-- smc_xqm&#45;&gt;fcs_xqm -->
<g id="edge244" class="edge"><title>smc_xqm&#45;&gt;fcs_xqm</title>
<path fill="none" stroke="black" d="M1368.7,-599.875C1360.2,-617.188 1347.79,-644.134 1340,-668.637 1316.07,-743.894 1355.64,-782.887 1304,-842.637 1267.5,-884.87 1235.53,-859.892 1186,-885.637 1162.7,-897.75 1138.46,-914.704 1120.17,-928.526"/>
<polygon fill="black" stroke="black" points="1118.02,-925.766 1112.21,-934.628 1122.28,-931.322 1118.02,-925.766"/>
</g>
<!-- smc_xqm&#45;&gt;crday_xqm -->
<g id="edge242" class="edge"><title>smc_xqm&#45;&gt;crday_xqm</title>
<path fill="none" stroke="black" d="M1392.33,-563.441C1412.39,-537.977 1448.96,-491.548 1472.07,-462.213"/>
<polygon fill="black" stroke="black" points="1475.05,-464.084 1478.49,-454.062 1469.55,-459.752 1475.05,-464.084"/>
</g>
<!-- cmdi_xqm -->
<g id="node95" class="node"><title>cmdi_xqm</title>
<a xlink:href="cmdi_xqm.png" xlink:title="cmdi.xqm">
<polygon fill="none" stroke="black" points="533,-532.637 455,-532.637 455,-496.637 533,-496.637 533,-532.637"/>
<text text-anchor="middle" x="494" y="-510.537" font-family="Times Roman,serif" font-size="14.00">cmdi.xqm</text>
</a>
</g>
<!-- cql_xql -->
<g id="node96" class="node"><title>cql_xql</title>
<a xlink:href="cql_xql.png" xlink:title="cql.xql">
<polygon fill="none" stroke="black" points="1118,-1330.64 1062,-1330.64 1062,-1294.64 1118,-1294.64 1118,-1330.64"/>
<text text-anchor="middle" x="1090" y="-1308.54" font-family="Times Roman,serif" font-size="14.00">cql.xql</text>
</a>
</g>
<!-- cql_xql&#45;&gt;index_xqm -->
<g id="edge210" class="edge"><title>cql_xql&#45;&gt;index_xqm</title>
<path fill="none" stroke="black" d="M1118.66,-1311.85C1186.31,-1310.01 1356.65,-1305.36 1442.25,-1303.02"/>
<polygon fill="black" stroke="black" points="1442.35,-1306.52 1452.25,-1302.75 1442.16,-1299.52 1442.35,-1306.52"/>
</g>
<!-- cqlparser_xqm -->
<g id="node98" class="node"><title>cqlparser_xqm</title>
<a xlink:href="cqlparser_xqm.png" xlink:title="cqlparser.xqm">
<polygon fill="none" stroke="black" points="1298,-1124.64 1192,-1124.64 1192,-1088.64 1298,-1088.64 1298,-1124.64"/>
<text text-anchor="middle" x="1245" y="-1102.54" font-family="Times Roman,serif" font-size="14.00">cqlparser.xqm</text>
</a>
</g>
<!-- cql_xql&#45;&gt;cqlparser_xqm -->
<g id="edge122" class="edge"><title>cql_xql&#45;&gt;cqlparser_xqm</title>
<path fill="none" stroke="black" d="M1118.79,-1305.65C1130.02,-1301.56 1142.07,-1295.24 1150,-1285.64 1194.2,-1232.1 1141.96,-1187.31 1186,-1133.64 1186.59,-1132.91 1187.21,-1132.21 1187.85,-1131.52"/>
<polygon fill="black" stroke="black" points="1190.25,-1134.07 1195.42,-1124.83 1185.61,-1128.83 1190.25,-1134.07"/>
</g>
<!-- cql_xql&#45;&gt;cql_xqm -->
<g id="edge206" class="edge"><title>cql_xql&#45;&gt;cql_xqm</title>
<path fill="none" stroke="black" d="M1118.6,-1300.32C1128.61,-1295.86 1139.88,-1290.68 1150,-1285.64 1216.91,-1252.31 1292.66,-1209.79 1337.81,-1183.92"/>
<polygon fill="black" stroke="black" points="1339.77,-1186.84 1346.7,-1178.82 1336.28,-1180.77 1339.77,-1186.84"/>
</g>
<!-- cql_xql&#45;&gt;query_xqm -->
<g id="edge208" class="edge"><title>cql_xql&#45;&gt;query_xqm</title>
<path fill="none" stroke="black" d="M1118.77,-1304.86C1129.73,-1300.68 1141.59,-1294.51 1150,-1285.64 1180.49,-1253.47 1156.72,-1225.91 1186,-1192.64 1188.81,-1189.44 1192.03,-1186.5 1195.47,-1183.81"/>
<polygon fill="black" stroke="black" points="1197.62,-1186.58 1203.83,-1178 1193.63,-1180.83 1197.62,-1186.58"/>
</g>
<!-- cqlparser_xqm&#45;&gt;diagnostics_xqm -->
<g id="edge124" class="edge"><title>cqlparser_xqm&#45;&gt;diagnostics_xqm</title>
<path fill="none" stroke="black" d="M1298.23,-1101.59C1370.73,-1093.9 1495.88,-1077.46 1534,-1052.64 1575.85,-1025.38 1604.36,-972.861 1618.86,-940.468"/>
<polygon fill="black" stroke="black" points="1622.14,-941.68 1622.9,-931.112 1615.72,-938.901 1622.14,-941.68"/>
</g>
<!-- extract_pages_xql -->
<g id="node100" class="node"><title>extract_pages_xql</title>
<a xlink:href="extract-pages_xql.png" xlink:title="extract&#45;pages.xql">
<polygon fill="none" stroke="black" points="735,-1314.64 611,-1314.64 611,-1278.64 735,-1278.64 735,-1314.64"/>
<text text-anchor="middle" x="673" y="-1292.54" font-family="Times Roman,serif" font-size="14.00">extract&#45;pages.xql</text>
</a>
</g>
<!-- extract_pages_xql&#45;&gt;diagnostics_xqm -->
<g id="edge128" class="edge"><title>extract_pages_xql&#45;&gt;diagnostics_xqm</title>
<path fill="none" stroke="black" d="M735.185,-1305.28C816.11,-1315.24 952.132,-1327.19 994,-1301.64 1023.86,-1283.41 1009.2,-1259.77 1030,-1231.64 1087.55,-1153.8 1104.3,-1131.56 1186,-1079.64 1219.56,-1058.31 1455.16,-974.123 1568.87,-934.053"/>
<polygon fill="black" stroke="black" points="1570.23,-937.287 1578.5,-930.664 1567.9,-930.684 1570.23,-937.287"/>
</g>
<!-- facsviewer_xqm -->
<g id="node102" class="node"><title>facsviewer_xqm</title>
<a xlink:href="facsviewer_xqm.png" xlink:title="facsviewer.xqm">
<polygon fill="none" stroke="black" points="954,-1238.64 840,-1238.64 840,-1202.64 954,-1202.64 954,-1238.64"/>
<text text-anchor="middle" x="897" y="-1216.54" font-family="Times Roman,serif" font-size="14.00">facsviewer.xqm</text>
</a>
</g>
<!-- extract_pages_xql&#45;&gt;facsviewer_xqm -->
<g id="edge126" class="edge"><title>extract_pages_xql&#45;&gt;facsviewer_xqm</title>
<path fill="none" stroke="black" d="M716.703,-1278.57C741.021,-1268.83 771.957,-1256.93 800,-1247.64 809.683,-1244.43 819.991,-1241.28 830.137,-1238.33"/>
<polygon fill="black" stroke="black" points="831.137,-1241.69 839.788,-1235.57 829.211,-1234.96 831.137,-1241.69"/>
</g>
<!-- facsviewer_xqm&#45;&gt;fcs_xqm -->
<g id="edge132" class="edge"><title>facsviewer_xqm&#45;&gt;fcs_xqm</title>
<path fill="none" stroke="black" d="M954.026,-1210.74C968.424,-1206 982.922,-1198.99 994,-1188.64 994.508,-1188.16 1053.57,-1042.52 1078.79,-980.297"/>
<polygon fill="black" stroke="black" points="1082.16,-981.303 1082.67,-970.72 1075.67,-978.673 1082.16,-981.303"/>
</g>
<!-- facsviewer_xql -->
<g id="node104" class="node"><title>facsviewer_xql</title>
<a xlink:href="facsviewer_xql.png" xlink:title="facsviewer.xql">
<polygon fill="none" stroke="black" points="725,-1244.64 621,-1244.64 621,-1208.64 725,-1208.64 725,-1244.64"/>
<text text-anchor="middle" x="673" y="-1222.54" font-family="Times Roman,serif" font-size="14.00">facsviewer.xql</text>
</a>
</g>
<!-- facsviewer_xql&#45;&gt;facsviewer_xqm -->
<g id="edge130" class="edge"><title>facsviewer_xql&#45;&gt;facsviewer_xqm</title>
<path fill="none" stroke="black" d="M725.518,-1225.23C756.573,-1224.4 796.223,-1223.34 829.573,-1222.44"/>
<polygon fill="black" stroke="black" points="829.801,-1225.94 839.704,-1222.17 829.614,-1218.94 829.801,-1225.94"/>
</g>
<!-- debug_fcs_xql -->
<g id="node107" class="node"><title>debug_fcs_xql</title>
<a xlink:href="debug-fcs_xql.png" xlink:title="debug&#45;fcs.xql">
<polygon fill="none" stroke="black" points="948,-1292.64 846,-1292.64 846,-1256.64 948,-1256.64 948,-1292.64"/>
<text text-anchor="middle" x="897" y="-1270.54" font-family="Times Roman,serif" font-size="14.00">debug&#45;fcs.xql</text>
</a>
</g>
<!-- debug_fcs_xql&#45;&gt;fcs_xqm -->
<g id="edge134" class="edge"><title>debug_fcs_xql&#45;&gt;fcs_xqm</title>
<path fill="none" stroke="black" d="M948.111,-1270.65C964.721,-1266.92 981.956,-1260.06 994,-1247.64 1040.81,-1199.34 1009.31,-1164.64 1030,-1100.64 1043.87,-1057.74 1064.33,-1009.62 1077.41,-980.224"/>
<polygon fill="black" stroke="black" points="1080.64,-981.564 1081.54,-971.007 1074.26,-978.7 1080.64,-981.564"/>
</g>
<!-- debug_fcs_xql&#45;&gt;cqlparser_xqm -->
<g id="edge136" class="edge"><title>debug_fcs_xql&#45;&gt;cqlparser_xqm</title>
<path fill="none" stroke="black" d="M948.213,-1263.1C963.248,-1258.99 979.532,-1253.82 994,-1247.64 1085.27,-1208.66 1098.09,-1179.68 1186,-1133.64 1188.89,-1132.12 1191.89,-1130.6 1194.93,-1129.1"/>
<polygon fill="black" stroke="black" points="1196.62,-1132.17 1204.1,-1124.67 1193.57,-1125.87 1196.62,-1132.17"/>
</g>
<!-- fcs_sade_xqm -->
<g id="node110" class="node"><title>fcs_sade_xqm</title>
<a xlink:href="fcs-sade_xqm.png" xlink:title="fcs&#45;sade.xqm">
<polygon fill="none" stroke="black" points="366,-1197.64 264,-1197.64 264,-1161.64 366,-1161.64 366,-1197.64"/>
<text text-anchor="middle" x="315" y="-1175.54" font-family="Times Roman,serif" font-size="14.00">fcs&#45;sade.xqm</text>
</a>
</g>
<!-- fcs_sade_xqm&#45;&gt;templates_xql -->
<g id="edge138" class="edge"><title>fcs_sade_xqm&#45;&gt;templates_xql</title>
<path fill="none" stroke="black" d="M366.294,-1165.6C387.437,-1159.81 412.082,-1153.06 434.051,-1147.05"/>
<polygon fill="black" stroke="black" points="435.213,-1150.36 443.934,-1144.34 433.365,-1143.61 435.213,-1150.36"/>
</g>
<!-- fcs_sade_xqm&#45;&gt;fcs_xqm -->
<g id="edge140" class="edge"><title>fcs_sade_xqm&#45;&gt;fcs_xqm</title>
<path fill="none" stroke="black" d="M366.007,-1181.84C505.619,-1186.93 890.479,-1194.39 994,-1127.64 1046.51,-1093.78 1072.67,-1020.8 1083.56,-980.608"/>
<polygon fill="black" stroke="black" points="1086.95,-981.461 1086.06,-970.904 1080.17,-979.714 1086.95,-981.461"/>
</g>
<!-- fcs_xql -->
<g id="node113" class="node"><title>fcs_xql</title>
<a xlink:href="fcs_xql.png" xlink:title="fcs.xql">
<polygon fill="none" stroke="black" points="925,-1070.64 869,-1070.64 869,-1034.64 925,-1034.64 925,-1070.64"/>
<text text-anchor="middle" x="897" y="-1048.54" font-family="Times Roman,serif" font-size="14.00">fcs.xql</text>
</a>
</g>
<!-- fcs_xql&#45;&gt;fcs_xqm -->
<g id="edge142" class="edge"><title>fcs_xql&#45;&gt;fcs_xqm</title>
<path fill="none" stroke="black" d="M925.626,-1047.64C945.51,-1043.47 972.237,-1036.44 994,-1025.64 1019.37,-1013.04 1044.74,-993.373 1063.02,-977.624"/>
<polygon fill="black" stroke="black" points="1065.69,-979.933 1070.89,-970.703 1061.07,-974.675 1065.69,-979.933"/>
</g>
<!-- cql_xqm&#45;&gt;index_xqm -->
<g id="edge214" class="edge"><title>cql_xqm&#45;&gt;index_xqm</title>
<path fill="none" stroke="black" d="M1401.36,-1178.69C1406.42,-1183.03 1411.57,-1187.81 1416,-1192.64 1439.8,-1218.55 1462.46,-1252.07 1476.95,-1275.06"/>
<polygon fill="black" stroke="black" points="1474.02,-1276.97 1482.28,-1283.61 1479.96,-1273.27 1474.02,-1276.97"/>
</g>
<!-- cql_xqm&#45;&gt;diagnostics_xqm -->
<g id="edge212" class="edge"><title>cql_xqm&#45;&gt;diagnostics_xqm</title>
<path fill="none" stroke="black" d="M1411.22,-1162.22C1445.57,-1162.1 1498.99,-1156.8 1534,-1128.64 1593.77,-1080.55 1617.44,-987.515 1625.86,-940.816"/>
<polygon fill="black" stroke="black" points="1629.34,-941.235 1627.56,-930.79 1622.44,-940.065 1629.34,-941.235"/>
</g>
<!-- query_xqm&#45;&gt;index_xqm -->
<g id="edge220" class="edge"><title>query_xqm&#45;&gt;index_xqm</title>
<path fill="none" stroke="black" d="M1286.01,-1172.83C1321.95,-1184.56 1374.73,-1204.37 1416,-1230.64 1435.86,-1243.27 1455.32,-1261.28 1469.71,-1276"/>
<polygon fill="black" stroke="black" points="1467.3,-1278.55 1476.75,-1283.35 1472.36,-1273.71 1467.3,-1278.55"/>
</g>
<!-- query_xqm&#45;&gt;diagnostics_xqm -->
<g id="edge218" class="edge"><title>query_xqm&#45;&gt;diagnostics_xqm</title>
<path fill="none" stroke="black" d="M1286.14,-1148.89C1302.85,-1144.14 1322.34,-1138.6 1340,-1133.64 1426.16,-1109.4 1463.31,-1134.53 1534,-1079.64 1580.6,-1043.45 1608.56,-977.833 1621.44,-940.531"/>
<polygon fill="black" stroke="black" points="1624.84,-941.402 1624.68,-930.808 1618.2,-939.191 1624.84,-941.402"/>
</g>
<!-- query_xqm&#45;&gt;cql_xqm -->
<g id="edge216" class="edge"><title>query_xqm&#45;&gt;cql_xqm</title>
<path fill="none" stroke="black" d="M1286.35,-1160.64C1301.59,-1160.64 1318.9,-1160.64 1334.34,-1160.64"/>
<polygon fill="black" stroke="black" points="1334.68,-1164.14 1344.68,-1160.64 1334.68,-1157.14 1334.68,-1164.14"/>
</g>
<!-- generate_index_functions_xql -->
<g id="node128" class="node"><title>generate_index_functions_xql</title>
<a xlink:href="generate-index-functions_xql.png" xlink:title="generate&#45;index&#45;functions.xql">
<polygon fill="none" stroke="black" points="994,-1016.64 800,-1016.64 800,-980.637 994,-980.637 994,-1016.64"/>
<text text-anchor="middle" x="897" y="-994.537" font-family="Times Roman,serif" font-size="14.00">generate&#45;index&#45;functions.xql</text>
</a>
</g>
<!-- generate_index_functions_xql&#45;&gt;fcs_xqm -->
<g id="edge166" class="edge"><title>generate_index_functions_xql&#45;&gt;fcs_xqm</title>
<path fill="none" stroke="black" d="M972.725,-980.589C997.887,-974.591 1025.03,-968.123 1046.86,-962.92"/>
<polygon fill="black" stroke="black" points="1047.88,-966.274 1056.8,-960.55 1046.26,-959.464 1047.88,-966.274"/>
</g>
<!-- dbutils_xql -->
<g id="node130" class="node"><title>dbutils_xql</title>
<a xlink:href="dbutils_xql.png" xlink:title="dbutils.xql">
<polygon fill="none" stroke="black" points="533,-1313.64 455,-1313.64 455,-1277.64 533,-1277.64 533,-1313.64"/>
<text text-anchor="middle" x="494" y="-1291.54" font-family="Times Roman,serif" font-size="14.00">dbutils.xql</text>
</a>
</g>
<!-- gendocs_xql -->
<g id="node131" class="node"><title>gendocs_xql</title>
<a xlink:href="gendocs_xql.png" xlink:title="gendocs.xql">
<polygon fill="none" stroke="black" points="140,-1302.64 48,-1302.64 48,-1266.64 140,-1266.64 140,-1302.64"/>
<text text-anchor="middle" x="94" y="-1280.54" font-family="Times Roman,serif" font-size="14.00">gendocs.xql</text>
</a>
</g>
<!-- scan_xql -->
<g id="node133" class="node"><title>scan_xql</title>
<a xlink:href="scan_xql.png" xlink:title="scan.xql">
<polygon fill="none" stroke="black" points="349,-1275.64 281,-1275.64 281,-1239.64 349,-1239.64 349,-1275.64"/>
<text text-anchor="middle" x="315" y="-1253.54" font-family="Times Roman,serif" font-size="14.00">scan.xql</text>
</a>
</g>
<!-- gendocs_xql&#45;&gt;scan_xql -->
<g id="edge168" class="edge"><title>gendocs_xql&#45;&gt;scan_xql</title>
<path fill="none" stroke="black" d="M140.598,-1278.94C178.913,-1274.26 232.846,-1267.67 270.559,-1263.07"/>
<polygon fill="black" stroke="black" points="271.237,-1266.51 280.739,-1261.82 270.388,-1259.56 271.237,-1266.51"/>
</g>
<!-- scan_xql&#45;&gt;dbutils_xql -->
<g id="edge172" class="edge"><title>scan_xql&#45;&gt;dbutils_xql</title>
<path fill="none" stroke="black" d="M349.09,-1264.87C376.065,-1270.6 414.113,-1278.68 444.453,-1285.12"/>
<polygon fill="black" stroke="black" points="443.911,-1288.58 454.42,-1287.23 445.365,-1281.73 443.911,-1288.58"/>
</g>
<!-- java -->
<g id="node138" class="node"><title>java</title>
<ellipse fill="none" stroke="black" cx="494" cy="-1241.64" rx="27.9903" ry="18"/>
<text text-anchor="middle" x="494" y="-1237.54" font-family="Times Roman,serif" font-size="14.00">java</text>
</g>
<!-- scan_xql&#45;&gt;java -->
<g id="edge174" class="edge"><title>scan_xql&#45;&gt;java:org_exist_xquery_functions_inspect_InspectionModule</title>
<path fill="none" stroke="black" d="M349.09,-1254.59C379.437,-1251.88 423.798,-1247.91 455.433,-1245.08"/>
<polygon fill="black" stroke="black" points="455.986,-1248.55 465.635,-1244.17 455.363,-1241.58 455.986,-1248.55"/>
</g>
<!-- reindex_xql -->
<g id="node134" class="node"><title>reindex_xql</title>
<a xlink:href="reindex_xql.png" xlink:title="reindex.xql">
<polygon fill="none" stroke="black" points="136,-1248.64 52,-1248.64 52,-1212.64 136,-1212.64 136,-1248.64"/>
<text text-anchor="middle" x="94" y="-1226.54" font-family="Times Roman,serif" font-size="14.00">reindex.xql</text>
</a>
</g>
<!-- reindex_xql&#45;&gt;scan_xql -->
<g id="edge170" class="edge"><title>reindex_xql&#45;&gt;scan_xql</title>
<path fill="none" stroke="black" d="M136.089,-1235.78C174.601,-1240.48 231.393,-1247.42 270.612,-1252.21"/>
<polygon fill="black" stroke="black" points="270.329,-1255.71 280.68,-1253.44 271.178,-1248.76 270.329,-1255.71"/>
</g>
<!-- get_xql -->
<g id="node139" class="node"><title>get_xql</title>
<a xlink:href="get_xql.png" xlink:title="get.xql">
<polygon fill="none" stroke="black" points="123,-656.637 65,-656.637 65,-620.637 123,-620.637 123,-656.637"/>
<text text-anchor="middle" x="94" y="-634.537" font-family="Times Roman,serif" font-size="14.00">get.xql</text>
</a>
</g>
<!-- get_xql&#45;&gt;project_xqm -->
<g id="edge184" class="edge"><title>get_xql&#45;&gt;project_xqm</title>
<path fill="none" stroke="black" d="M123.05,-646.969C149.316,-654.38 189.104,-665.304 224,-673.637 304.373,-692.83 342.382,-658.901 406,-711.637 438.217,-738.343 414.859,-766.786 442,-798.637 444.304,-801.341 446.897,-803.886 449.662,-806.266"/>
<polygon fill="black" stroke="black" points="447.756,-809.216 457.818,-812.536 452.023,-803.666 447.756,-809.216"/>
</g>
<!-- get_xql&#45;&gt;projectAdmin_xqm -->
<g id="edge186" class="edge"><title>get_xql&#45;&gt;projectAdmin_xqm</title>
<path fill="none" stroke="black" d="M123.098,-655.401C149.064,-669.986 188.377,-691.153 224,-706.637 232.346,-710.265 241.25,-713.795 250.098,-717.104"/>
<polygon fill="black" stroke="black" points="249.055,-720.45 259.649,-720.604 251.463,-713.877 249.055,-720.45"/>
</g>
<!-- viewer_xqm -->
<g id="node141" class="node"><title>viewer_xqm</title>
<a xlink:href="viewer_xqm.png" xlink:title="viewer.xqm">
<polygon fill="none" stroke="black" points="358,-610.637 272,-610.637 272,-574.637 358,-574.637 358,-610.637"/>
<text text-anchor="middle" x="315" y="-588.537" font-family="Times Roman,serif" font-size="14.00">viewer.xqm</text>
</a>
</g>
<!-- get_xql&#45;&gt;viewer_xqm -->
<g id="edge246" class="edge"><title>get_xql&#45;&gt;viewer_xqm</title>
<path fill="none" stroke="black" d="M123.347,-627.769C158.457,-618.259 217.929,-605.505 261.33,-597.924"/>
<polygon fill="black" stroke="black" points="262.166,-601.332 271.437,-596.205 260.992,-594.431 262.166,-601.332"/>
</g>
<!-- get_xql&#45;&gt;viewer_xqm -->
<g id="edge176" class="edge"><title>get_xql&#45;&gt;viewer_xqm</title>
<path fill="none" stroke="black" d="M123.347,-637.289C158.531,-632.172 218.18,-620.128 261.604,-609.626"/>
<polygon fill="black" stroke="black" points="262.565,-612.994 271.437,-607.204 260.891,-606.197 262.565,-612.994"/>
</g>
<!-- viewer_xqm&#45;&gt;project_xqm -->
<g id="edge182" class="edge"><title>viewer_xqm&#45;&gt;project_xqm</title>
<path fill="none" stroke="black" d="M358.716,-596.971C375.349,-600.65 393.326,-607.378 406,-619.637 442.368,-654.813 422.547,-680.93 442,-727.637 452.97,-753.977 467.831,-782.894 478.857,-803.364"/>
<polygon fill="black" stroke="black" points="475.925,-805.298 483.777,-812.411 482.074,-801.954 475.925,-805.298"/>
</g>
<!-- viewer_xqm&#45;&gt;resource_xqm -->
<g id="edge248" class="edge"><title>viewer_xqm&#45;&gt;resource_xqm</title>
<path fill="none" stroke="black" d="M358.758,-591.793C383.227,-594.649 414.29,-599.536 442,-603.637 499.276,-612.113 564.646,-621.105 611.193,-628.961"/>
<polygon fill="black" stroke="black" points="610.676,-632.423 621.125,-630.671 611.864,-625.525 610.676,-632.423"/>
</g>
<!-- viewer_xqm&#45;&gt;resource_xqm -->
<g id="edge180" class="edge"><title>viewer_xqm&#45;&gt;resource_xqm</title>
<path fill="none" stroke="black" d="M358.758,-607.673C383.227,-612.649 414.29,-617.536 442,-621.637 499.155,-630.096 564.372,-639.068 610.9,-643.793"/>
<polygon fill="black" stroke="black" points="610.833,-647.303 621.125,-644.79 611.512,-640.336 610.833,-647.303"/>
</g>
<!-- viewer_xqm&#45;&gt;cr_xqm -->
<g id="edge178" class="edge"><title>viewer_xqm&#45;&gt;cr_xqm</title>
<path fill="none" stroke="black" d="M358.749,-589.431C375.794,-585.947 394.063,-579.06 406,-565.637 468.346,-495.53 372.765,-420.949 442,-357.637 518.021,-288.12 569.987,-338.637 673,-338.637 673,-338.637 673,-338.637 897,-338.637 1009.26,-338.637 1140.7,-358.421 1205.19,-369.439"/>
<polygon fill="black" stroke="black" points="1204.88,-372.936 1215.33,-371.193 1206.07,-366.039 1204.88,-372.936"/>
</g>
<!-- abacus_xqm -->
<g id="node145" class="node"><title>abacus_xqm</title>
<a xlink:href="abacus_xqm.png" xlink:title="abacus.xqm">
<polygon fill="none" stroke="black" points="140,-1356.64 48,-1356.64 48,-1320.64 140,-1320.64 140,-1356.64"/>
<text text-anchor="middle" x="94" y="-1334.54" font-family="Times Roman,serif" font-size="14.00">abacus.xqm</text>
</a>
</g>
<!-- navigation_xqm -->
<g id="node146" class="node"><title>navigation_xqm</title>
<a xlink:href="navigation_xqm.png" xlink:title="navigation.xqm">
<polygon fill="none" stroke="black" points="149,-1410.64 39,-1410.64 39,-1374.64 149,-1374.64 149,-1410.64"/>
<text text-anchor="middle" x="94" y="-1388.54" font-family="Times Roman,serif" font-size="14.00">navigation.xqm</text>
</a>
</g>
<!-- projectAdmin_xql -->
<g id="node149" class="node"><title>projectAdmin_xql</title>
<a xlink:href="projectAdmin_xql.png" xlink:title="projectAdmin.xql">
<polygon fill="none" stroke="black" points="155,-824.637 33,-824.637 33,-788.637 155,-788.637 155,-824.637"/>
<text text-anchor="middle" x="94" y="-802.537" font-family="Times Roman,serif" font-size="14.00">projectAdmin.xql</text>
</a>
</g>
<!-- projectAdmin_xql&#45;&gt;project_xqm -->
<g id="edge190" class="edge"><title>projectAdmin_xql&#45;&gt;project_xqm</title>
<path fill="none" stroke="black" d="M155.323,-817.022C167.066,-821.091 178.61,-826.754 188,-834.637 215.402,-857.639 193.566,-887.828 224,-906.637 292.808,-949.163 332.903,-941.276 406,-906.637 428.833,-895.817 422.977,-879.266 442,-862.637 445.232,-859.811 448.743,-857.079 452.364,-854.481"/>
<polygon fill="black" stroke="black" points="454.612,-857.186 460.932,-848.682 450.688,-851.389 454.612,-857.186"/>
</g>
<!-- projectAdmin_xql&#45;&gt;projectAdmin_xqm -->
<g id="edge188" class="edge"><title>projectAdmin_xql&#45;&gt;projectAdmin_xqm</title>
<path fill="none" stroke="black" d="M155.182,-789.94C166.163,-786.694 177.462,-783.191 188,-779.637 204.267,-774.15 207.757,-771.194 224,-765.637 229.832,-763.641 235.903,-761.653 242.018,-759.711"/>
<polygon fill="black" stroke="black" points="243.136,-763.029 251.636,-756.705 241.047,-756.348 243.136,-763.029"/>
</g>
<!-- projectAdmin_via_mets_xql -->
<g id="node154" class="node"><title>projectAdmin_via_mets_xql</title>
<a xlink:href="projectAdmin_via_mets_xql.png" xlink:title="projectAdmin_via_mets.xql">
<polygon fill="none" stroke="black" points="187,-770.637 1,-770.637 1,-734.637 187,-734.637 187,-770.637"/>
<text text-anchor="middle" x="94" y="-748.537" font-family="Times Roman,serif" font-size="14.00">projectAdmin_via_mets.xql</text>
</a>
</g>
<!-- projectAdmin_via_mets_xql&#45;&gt;project_xqm -->
<g id="edge198" class="edge"><title>projectAdmin_via_mets_xql&#45;&gt;project_xqm</title>
<path fill="none" stroke="black" d="M176.096,-770.824C180.359,-773.387 184.372,-776.308 188,-779.637 220.965,-809.881 187.141,-848.284 224,-873.637 293.645,-921.542 397.053,-881.988 453.547,-853.474"/>
<polygon fill="black" stroke="black" points="455.254,-856.532 462.532,-848.832 452.041,-850.313 455.254,-856.532"/>
</g>
<!-- projectAdmin_via_mets_xql&#45;&gt;projectAdmin_xqm -->
<g id="edge196" class="edge"><title>projectAdmin_via_mets_xql&#45;&gt;projectAdmin_xqm</title>
<path fill="none" stroke="black" d="M187.724,-746.7C204.87,-745.614 222.569,-744.492 239.115,-743.444"/>
<polygon fill="black" stroke="black" points="239.495,-746.927 249.254,-742.802 239.052,-739.941 239.495,-746.927"/>
</g>
<!-- store_xql -->
<g id="node157" class="node"><title>store_xql</title>
<a xlink:href="store_xql.png" xlink:title="store.xql">
<polygon fill="none" stroke="black" points="350,-864.637 280,-864.637 280,-828.637 350,-828.637 350,-864.637"/>
<text text-anchor="middle" x="315" y="-842.537" font-family="Times Roman,serif" font-size="14.00">store.xql</text>
</a>
</g>
<!-- store_xql&#45;&gt;project_xqm -->
<g id="edge200" class="edge"><title>store_xql&#45;&gt;project_xqm</title>
<path fill="none" stroke="black" d="M350.365,-843.476C375.5,-841.229 409.761,-838.167 438.518,-835.596"/>
<polygon fill="black" stroke="black" points="439.188,-839.05 448.836,-834.674 438.564,-832.078 439.188,-839.05"/>
</g>
<!-- cql_tests_xql -->
<g id="node159" class="node"><title>cql_tests_xql</title>
<a xlink:href="cql-tests_xql.png" xlink:title="cql&#45;tests.xql">
<polygon fill="none" stroke="black" points="1136,-1276.64 1044,-1276.64 1044,-1240.64 1136,-1240.64 1136,-1276.64"/>
<text text-anchor="middle" x="1090" y="-1254.54" font-family="Times Roman,serif" font-size="14.00">cql&#45;tests.xql</text>
</a>
</g>
<!-- cql_tests_xql&#45;&gt;index_xqm -->
<g id="edge204" class="edge"><title>cql_tests_xql&#45;&gt;index_xqm</title>
<path fill="none" stroke="black" d="M1136.23,-1263.57C1212.31,-1271.69 1363.32,-1287.8 1442.25,-1296.22"/>
<polygon fill="black" stroke="black" points="1442.12,-1299.73 1452.44,-1297.31 1442.86,-1292.77 1442.12,-1299.73"/>
</g>
<!-- cql_tests_xql&#45;&gt;cqlparser_xqm -->
<g id="edge202" class="edge"><title>cql_tests_xql&#45;&gt;cqlparser_xqm</title>
<path fill="none" stroke="black" d="M1133.09,-1240.6C1139.32,-1236.66 1145.22,-1232.03 1150,-1226.64 1179.39,-1193.46 1155.61,-1165.9 1186,-1133.64 1186.89,-1132.69 1187.82,-1131.78 1188.78,-1130.89"/>
<polygon fill="black" stroke="black" points="1191.03,-1133.58 1196.76,-1124.67 1186.72,-1128.06 1191.03,-1133.58"/>
</g>
<!-- resource_xql -->
<g id="node172" class="node"><title>resource_xql</title>
<a xlink:href="resource_xql.png" xlink:title="resource.xql">
<polygon fill="none" stroke="black" points="541,-150.637 447,-150.637 447,-114.637 541,-114.637 541,-150.637"/>
<text text-anchor="middle" x="494" y="-128.537" font-family="Times Roman,serif" font-size="14.00">resource.xql</text>
</a>
</g>
<!-- resource_xql&#45;&gt;resource_xqm -->
<g id="edge230" class="edge"><title>resource_xql&#45;&gt;resource_xqm</title>
<path fill="none" stroke="black" d="M499.249,-150.727C512.298,-195.356 547.635,-314.16 582,-411.637 608.456,-486.68 643.658,-573.661 661.534,-617.049"/>
<polygon fill="black" stroke="black" points="658.33,-618.462 665.383,-626.368 664.8,-615.79 658.33,-618.462"/>
</g>
<!-- resource_xql&#45;&gt;crday_xqm -->
<g id="edge228" class="edge"><title>resource_xql&#45;&gt;crday_xqm</title>
<path fill="none" stroke="black" d="M541.153,-132.637C616.396,-132.637 768.264,-132.637 897,-132.637 897,-132.637 897,-132.637 1090,-132.637 1185.49,-132.637 1219.36,-107.445 1304,-151.637 1326.09,-163.172 1320.12,-179.608 1340,-194.637 1369.52,-216.949 1391.38,-201.014 1416,-228.637 1451.35,-268.301 1433.26,-292.92 1452,-342.637 1460.44,-365.03 1471.45,-389.798 1479.93,-408.14"/>
<polygon fill="black" stroke="black" points="1476.83,-409.773 1484.23,-417.356 1483.17,-406.814 1476.83,-409.773"/>
</g>
<!-- resource_xql&#45;&gt;diagnostics_xqm -->
<g id="edge226" class="edge"><title>resource_xql&#45;&gt;diagnostics_xqm</title>
<path fill="none" stroke="black" d="M535.748,-114.578C607.944,-85.0379 761.418,-29.637 897,-29.637 897,-29.637 897,-29.637 1378,-29.637 1448.69,-29.637 1486.16,-8.59861 1534,-60.637 1591.13,-122.779 1622.39,-743.754 1628.77,-884.412"/>
<polygon fill="black" stroke="black" points="1625.27,-884.575 1629.22,-894.409 1632.27,-884.262 1625.27,-884.575"/>
</g>
<!-- smc_xql -->
<g id="node178" class="node"><title>smc_xql</title>
<a xlink:href="smc_xql.png" xlink:title="smc.xql">
<polygon fill="none" stroke="black" points="1277,-196.637 1213,-196.637 1213,-160.637 1277,-160.637 1277,-196.637"/>
<text text-anchor="middle" x="1245" y="-174.537" font-family="Times Roman,serif" font-size="14.00">smc.xql</text>
</a>
</g>
<!-- smc_xql&#45;&gt;crday_xqm -->
<g id="edge238" class="edge"><title>smc_xql&#45;&gt;crday_xqm</title>
<path fill="none" stroke="black" d="M1277.73,-195.817C1324.37,-220.506 1405.51,-264.302 1416,-275.637 1451.96,-314.491 1474.33,-373.219 1485.15,-407.672"/>
<polygon fill="black" stroke="black" points="1481.89,-408.982 1488.14,-417.536 1488.59,-406.95 1481.89,-408.982"/>
</g>
<!-- smc_xql&#45;&gt;diagnostics_xqm -->
<g id="edge240" class="edge"><title>smc_xql&#45;&gt;diagnostics_xqm</title>
<path fill="none" stroke="black" d="M1256.87,-160.596C1272.74,-138.317 1303.18,-101.542 1340,-86.637 1420.69,-53.9693 1475.77,-48.925 1534,-113.637 1586.72,-172.227 1621.09,-748.34 1628.5,-884.091"/>
<polygon fill="black" stroke="black" points="1625.02,-884.678 1629.06,-894.475 1632.01,-884.3 1625.02,-884.678"/>
</g>
<!-- smc_xql&#45;&gt;smc_xqm -->
<g id="edge236" class="edge"><title>smc_xql&#45;&gt;smc_xqm</title>
<path fill="none" stroke="black" d="M1252.18,-196.861C1264.18,-227.854 1288.54,-292.982 1304,-349.637 1325.14,-427.082 1308.54,-452.779 1340,-526.637 1344.23,-536.567 1350.4,-546.541 1356.55,-555.217"/>
<polygon fill="black" stroke="black" points="1353.85,-557.453 1362.61,-563.409 1359.47,-553.289 1353.85,-557.453"/>
</g>
<!-- test_xqm -->
<g id="node184" class="node"><title>test_xqm</title>
<a xlink:href="test_xqm.png" xlink:title="test.xqm">
<polygon fill="none" stroke="black" points="129,-1464.64 59,-1464.64 59,-1428.64 129,-1428.64 129,-1464.64"/>
<text text-anchor="middle" x="94" y="-1442.54" font-family="Times Roman,serif" font-size="14.00">test.xqm</text>
</a>
</g>
<!-- text_viewer_xqm -->
<g id="node185" class="node"><title>text_viewer_xqm</title>
<a xlink:href="text-viewer_xqm.png" xlink:title="text&#45;viewer.xqm">
<polygon fill="none" stroke="black" points="151,-1518.64 37,-1518.64 37,-1482.64 151,-1482.64 151,-1518.64"/>
<text text-anchor="middle" x="94" y="-1496.54" font-family="Times Roman,serif" font-size="14.00">text&#45;viewer.xqm</text>
</a>
</g>
<!-- xfedora_xqm -->
<g id="node188" class="node"><title>xfedora_xqm</title>
<a xlink:href="xfedora_xqm.png" xlink:title="xfedora.xqm">
<polygon fill="none" stroke="black" points="362,-556.637 268,-556.637 268,-520.637 362,-520.637 362,-556.637"/>
<text text-anchor="middle" x="315" y="-534.537" font-family="Times Roman,serif" font-size="14.00">xfedora.xqm</text>
</a>
</g>
<!-- xfedora_xqm&#45;&gt;project_xqm -->
<g id="edge252" class="edge"><title>xfedora_xqm&#45;&gt;project_xqm</title>
<path fill="none" stroke="black" d="M362.671,-543.07C378.417,-546.829 394.761,-553.585 406,-565.637 456.303,-619.578 417.188,-658.179 442,-727.637 451.584,-754.465 466.568,-783.274 477.994,-803.582"/>
<polygon fill="black" stroke="black" points="474.962,-805.331 482.961,-812.277 481.04,-801.858 474.962,-805.331"/>
</g>
<!-- xfedora_xqm&#45;&gt;resource_xqm -->
<g id="edge250" class="edge"><title>xfedora_xqm&#45;&gt;resource_xqm</title>
<path fill="none" stroke="black" d="M362.54,-552.713C426.755,-571.727 541.278,-605.636 611.839,-626.528"/>
<polygon fill="black" stroke="black" points="610.912,-629.903 621.494,-629.387 612.899,-623.191 610.912,-629.903"/>
</g>
<!-- xfedora_xqm&#45;&gt;cmdi_xqm -->
<g id="edge254" class="edge"><title>xfedora_xqm&#45;&gt;cmdi_xqm</title>
<path fill="none" stroke="black" d="M362.969,-532.205C388.272,-528.813 419.265,-524.657 444.756,-521.24"/>
<polygon fill="black" stroke="black" points="445.503,-524.671 454.949,-519.873 444.573,-517.733 445.503,-524.671"/>
</g>
<!-- controller_xql -->
<g id="node192" class="node"><title>controller_xql</title>
<a xlink:href="controller_xql.png" xlink:title="controller.xql">
<polygon fill="none" stroke="black" points="142,-474.637 46,-474.637 46,-438.637 142,-438.637 142,-474.637"/>
<text text-anchor="middle" x="94" y="-452.537" font-family="Times Roman,serif" font-size="14.00">controller.xql</text>
</a>
</g>
<!-- controller_xql&#45;&gt;projectAdmin_xqm -->
<g id="edge258" class="edge"><title>controller_xql&#45;&gt;projectAdmin_xqm</title>
<path fill="none" stroke="black" d="M105.111,-474.705C122.815,-503.552 158.446,-561.839 188,-611.637 204.262,-639.039 202.554,-650.07 224,-673.637 238.466,-689.533 257.437,-703.836 274.313,-714.952"/>
<polygon fill="black" stroke="black" points="272.604,-718.014 282.912,-720.465 276.383,-712.121 272.604,-718.014"/>
</g>
<!-- controller_xql&#45;&gt;login_xql -->
<g id="edge256" class="edge"><title>controller_xql&#45;&gt;login_xql</title>
<path fill="none" stroke="black" d="M135.169,-438.636C160.54,-427.848 193.875,-414.218 224,-403.637 239.033,-398.357 255.691,-393.214 270.603,-388.857"/>
<polygon fill="black" stroke="black" points="271.966,-392.107 280.606,-385.975 270.028,-385.381 271.966,-392.107"/>
</g>
<!-- lookup_test_xql -->
<g id="node195" class="node"><title>lookup_test_xql</title>
<a xlink:href="lookup-test_xql.png" xlink:title="lookup&#45;test.xql">
<polygon fill="none" stroke="black" points="369,-664.637 261,-664.637 261,-628.637 369,-628.637 369,-664.637"/>
<text text-anchor="middle" x="315" y="-642.537" font-family="Times Roman,serif" font-size="14.00">lookup&#45;test.xql</text>
</a>
</g>
<!-- lookup_test_xql&#45;&gt;project_xqm -->
<g id="edge260" class="edge"><title>lookup_test_xql&#45;&gt;project_xqm</title>
<path fill="none" stroke="black" d="M369.41,-656.612C382.838,-661.352 396.172,-668.339 406,-678.637 444.443,-718.918 408.068,-754.489 442,-798.637 444.035,-801.284 446.356,-803.765 448.863,-806.079"/>
<polygon fill="black" stroke="black" points="446.86,-808.961 456.837,-812.526 451.261,-803.517 446.86,-808.961"/>
</g>
<!-- lookup_test_xql&#45;&gt;resourcefragment_xqm -->
<g id="edge266" class="edge"><title>lookup_test_xql&#45;&gt;resourcefragment_xqm</title>
<path fill="none" stroke="black" d="M369.023,-653.137C382.001,-656.555 395.214,-661.749 406,-669.637 430.49,-687.547 418.699,-708.207 442,-727.637 502.832,-778.363 716.763,-850.254 828.256,-885.497"/>
<polygon fill="black" stroke="black" points="827.474,-888.92 838.064,-888.586 829.578,-882.244 827.474,-888.92"/>
</g>
<!-- lookup_test_xql&#45;&gt;wc_xqm -->
<g id="edge262" class="edge"><title>lookup_test_xql&#45;&gt;wc_xqm</title>
<path fill="none" stroke="black" d="M369.1,-632.715C381.412,-628.963 394.305,-624.559 406,-619.637 471.65,-592.007 499.629,-595.703 546,-541.637 575.937,-506.732 546.752,-474.169 582,-444.637 645.014,-391.841 686.882,-440.113 764,-411.637 781.376,-405.221 782.399,-396.41 800,-390.637 1013.55,-320.593 1113.14,-230.973 1304,-349.637 1326.29,-363.495 1354,-432.571 1368.36,-471.976"/>
<polygon fill="black" stroke="black" points="1365.12,-473.308 1371.79,-481.536 1371.71,-470.941 1365.12,-473.308"/>
</g>
<!-- lookup_test_xql&#45;&gt;master_xqm -->
<g id="edge264" class="edge"><title>lookup_test_xql&#45;&gt;master_xqm</title>
<path fill="none" stroke="black" d="M369.192,-662.985C391.331,-669.664 416.904,-677.379 439.115,-684.079"/>
<polygon fill="black" stroke="black" points="438.148,-687.443 448.732,-686.981 440.169,-680.742 438.148,-687.443"/>
</g>
<!-- proxy_xql -->
<g id="node200" class="node"><title>proxy_xql</title>
<a xlink:href="proxy_xql.png" xlink:title="proxy.xql">
<polygon fill="none" stroke="black" points="130,-1572.64 58,-1572.64 58,-1536.64 130,-1536.64 130,-1572.64"/>
<text text-anchor="middle" x="94" y="-1550.54" font-family="Times Roman,serif" font-size="14.00">proxy.xql</text>
</a>
</g>
<!-- restxq_xql -->
<g id="node201" class="node"><title>restxq_xql</title>
<a xlink:href="restxq_xql.png" xlink:title="restxq.xql">
<polygon fill="none" stroke="black" points="132,-1626.64 56,-1626.64 56,-1590.64 132,-1590.64 132,-1626.64"/>
<text text-anchor="middle" x="94" y="-1604.54" font-family="Times Roman,serif" font-size="14.00">restxq.xql</text>
</a>
</g>
<!-- sandbox_xql -->
<g id="node202" class="node"><title>sandbox_xql</title>
<a xlink:href="sandbox_xql.png" xlink:title="sandbox.xql">
<polygon fill="none" stroke="black" points="719,-1038.64 627,-1038.64 627,-1002.64 719,-1002.64 719,-1038.64"/>
<text text-anchor="middle" x="673" y="-1016.54" font-family="Times Roman,serif" font-size="14.00">sandbox.xql</text>
</a>
</g>
<!-- sandbox_xql&#45;&gt;fcs_xqm -->
<g id="edge268" class="edge"><title>sandbox_xql&#45;&gt;fcs_xqm</title>
<path fill="none" stroke="black" d="M702.225,-1038.7C727.159,-1052.99 764.51,-1071.8 800,-1079.64 884.192,-1098.24 916.808,-1118.05 994,-1079.64 1035.53,-1058.97 1063.87,-1010.81 1078.46,-980.097"/>
<polygon fill="black" stroke="black" points="1081.74,-981.343 1082.72,-970.793 1075.37,-978.432 1081.74,-981.343"/>
</g>
<!-- sandbox_xql&#45;&gt;toc_xqm -->
<g id="edge270" class="edge"><title>sandbox_xql&#45;&gt;toc_xqm</title>
<path fill="none" stroke="black" d="M686.976,-1002.41C709.117,-974.204 754.436,-919.117 800,-879.637 817.642,-864.35 839.04,-849.664 857.245,-838.131"/>
<polygon fill="black" stroke="black" points="859.264,-840.997 865.895,-832.734 855.558,-835.058 859.264,-840.997"/>
</g>
<!-- sandbox_init_project_xql -->
<g id="node205" class="node"><title>sandbox_init_project_xql</title>
<a xlink:href="sandbox_init_project_xql.png" xlink:title="sandbox_init_project.xql">
<polygon fill="none" stroke="black" points="399,-1048.64 231,-1048.64 231,-1012.64 399,-1012.64 399,-1048.64"/>
<text text-anchor="middle" x="315" y="-1026.54" font-family="Times Roman,serif" font-size="14.00">sandbox_init_project.xql</text>
</a>
</g>
<!-- sandbox_init_project_xql&#45;&gt;project_xqm -->
<g id="edge272" class="edge"><title>sandbox_init_project_xql&#45;&gt;project_xqm</title>
<path fill="none" stroke="black" d="M394.602,-1012.38C398.698,-1009.83 402.541,-1006.93 406,-1003.64 441.1,-970.176 419.281,-943.479 442,-900.637 450.203,-885.167 461.609,-869.387 471.649,-856.734"/>
<polygon fill="black" stroke="black" points="474.418,-858.877 478.001,-848.906 468.982,-854.466 474.418,-858.877"/>
</g>
<!-- sandbox_init_project_xql&#45;&gt;index_xqm -->
<g id="edge274" class="edge"><title>sandbox_init_project_xql&#45;&gt;index_xqm</title>
<path fill="none" stroke="black" d="M399.735,-1035.13C450.017,-1042.51 510.657,-1060.55 546,-1103.64 630.328,-1206.44 490.021,-1304.62 582,-1400.64 680.156,-1503.1 755.105,-1452.64 897,-1452.64 897,-1452.64 897,-1452.64 1245,-1452.64 1325.54,-1452.64 1349.66,-1438.31 1416,-1392.64 1440.8,-1375.56 1462.28,-1348.51 1476.2,-1328.33"/>
<polygon fill="black" stroke="black" points="1479.21,-1330.13 1481.87,-1319.88 1473.39,-1326.23 1479.21,-1330.13"/>
</g>
<!-- sandbox_init_resource_xql -->
<g id="node208" class="node"><title>sandbox_init_resource_xql</title>
<a xlink:href="sandbox_init_resource_xql.png" xlink:title="sandbox_init_resource.xql">
<polygon fill="none" stroke="black" points="406,-448.637 224,-448.637 224,-412.637 406,-412.637 406,-448.637"/>
<text text-anchor="middle" x="315" y="-426.537" font-family="Times Roman,serif" font-size="14.00">sandbox_init_resource.xql</text>
</a>
</g>
<!-- sandbox_init_resource_xql&#45;&gt;project_xqm -->
<g id="edge276" class="edge"><title>sandbox_init_resource_xql&#45;&gt;project_xqm</title>
<path fill="none" stroke="black" d="M344.431,-448.876C365.076,-463.296 391.487,-485.342 406,-511.637 453.027,-596.845 411.724,-635.142 442,-727.637 450.862,-754.712 465.927,-783.493 477.567,-803.728"/>
<polygon fill="black" stroke="black" points="474.565,-805.528 482.639,-812.388 480.604,-801.99 474.565,-805.528"/>
</g>
<!-- sandbox_init_resource_xql&#45;&gt;resource_xqm -->
<g id="edge278" class="edge"><title>sandbox_init_resource_xql&#45;&gt;resource_xqm</title>
<path fill="none" stroke="black" d="M406.231,-422.609C451.218,-422.82 504.564,-429.655 546,-454.637 608.599,-492.378 646.872,-574.199 663.412,-617.109"/>
<polygon fill="black" stroke="black" points="660.193,-618.494 666.972,-626.637 666.75,-616.044 660.193,-618.494"/>
</g>
<!-- sandbox_init_resource_xql&#45;&gt;resourcefragment_xqm -->
<g id="edge280" class="edge"><title>sandbox_init_resource_xql&#45;&gt;resourcefragment_xqm</title>
<path fill="none" stroke="black" d="M406.247,-448.295C466.411,-460.758 535.922,-477.056 546,-487.637 603.47,-547.976 536.128,-602.072 582,-671.637 635.882,-753.35 692.544,-728.746 764,-795.637 782.953,-813.379 780.979,-823.968 800,-841.637 816.848,-857.288 837.811,-871.831 855.934,-883.175"/>
<polygon fill="black" stroke="black" points="854.219,-886.229 864.572,-888.478 857.881,-880.264 854.219,-886.229"/>
</g>
<!-- sandbox_init_resource_xql&#45;&gt;cr_xqm -->
<g id="edge286" class="edge"><title>sandbox_init_resource_xql&#45;&gt;cr_xqm</title>
<path fill="none" stroke="black" d="M394.75,-412.529C398.809,-409.946 402.604,-406.999 406,-403.637 444.664,-365.36 398.236,-318.96 442,-286.637 568.739,-193.03 999.453,-278.154 1150,-324.637 1171.11,-331.156 1192.86,-342.647 1210.21,-353.172"/>
<polygon fill="black" stroke="black" points="1208.52,-356.241 1218.86,-358.557 1212.22,-350.299 1208.52,-356.241"/>
</g>
<!-- sandbox_init_resource_xql&#45;&gt;facs_xqm -->
<g id="edge282" class="edge"><title>sandbox_init_resource_xql&#45;&gt;facs_xqm</title>
<path fill="none" stroke="black" d="M390.241,-412.484C395.771,-409.908 401.096,-406.975 406,-403.637 427.462,-389.03 418.662,-369.008 442,-357.637 570.653,-294.954 627.315,-315.234 764,-357.637 962.749,-419.295 1007.78,-470.731 1150,-622.637 1187.78,-662.989 1217.5,-720.879 1233.05,-754.835"/>
<polygon fill="black" stroke="black" points="1229.95,-756.465 1237.24,-764.152 1236.33,-753.596 1229.95,-756.465"/>
</g>
<!-- sandbox_init_resource_xql&#45;&gt;wc_xqm -->
<g id="edge284" class="edge"><title>sandbox_init_resource_xql&#45;&gt;wc_xqm</title>
<path fill="none" stroke="black" d="M395.451,-412.535C399.281,-409.948 402.839,-406.999 406,-403.637 454.74,-351.796 392.481,-298.735 442,-247.637 515.898,-171.384 566.814,-186.637 673,-186.637 673,-186.637 673,-186.637 897,-186.637 1083.27,-186.637 1166.34,-161.152 1304,-286.637 1331.88,-312.05 1359.72,-419.916 1371.78,-471.688"/>
<polygon fill="black" stroke="black" points="1368.4,-472.58 1374.04,-481.544 1375.22,-471.014 1368.4,-472.58"/>
</g>
<!-- setup_xql -->
<g id="node215" class="node"><title>setup_xql</title>
<a xlink:href="setup_xql.png" xlink:title="setup.xql">
<polygon fill="none" stroke="black" points="351,-810.637 279,-810.637 279,-774.637 351,-774.637 351,-810.637"/>
<text text-anchor="middle" x="315" y="-788.537" font-family="Times Roman,serif" font-size="14.00">setup.xql</text>
</a>
</g>
<!-- setup_xql&#45;&gt;project_xqm -->
<g id="edge288" class="edge"><title>setup_xql&#45;&gt;project_xqm</title>
<path fill="none" stroke="black" d="M351.655,-800.419C376.816,-805.76 410.659,-812.944 439.032,-818.968"/>
<polygon fill="black" stroke="black" points="438.308,-822.392 448.817,-821.045 439.762,-815.545 438.308,-822.392"/>
</g>
<!-- setup_project_xql -->
<g id="node217" class="node"><title>setup_project_xql</title>
<a xlink:href="setup_project_xql.png" xlink:title="setup_project.xql">
<polygon fill="none" stroke="black" points="156,-1680.64 32,-1680.64 32,-1644.64 156,-1644.64 156,-1680.64"/>
<text text-anchor="middle" x="94" y="-1658.54" font-family="Times Roman,serif" font-size="14.00">setup_project.xql</text>
</a>
</g>
<!-- sync_xql -->
<g id="node218" class="node"><title>sync_xql</title>
<a xlink:href="sync_xql.png" xlink:title="sync.xql">
<polygon fill="none" stroke="black" points="127,-1734.64 61,-1734.64 61,-1698.64 127,-1698.64 127,-1734.64"/>
<text text-anchor="middle" x="94" y="-1712.54" font-family="Times Roman,serif" font-size="14.00">sync.xql</text>
</a>
</g>
</g>
</svg>
